<svg width="302" height="628" viewBox="0 0 302 628" fill="none" xmlns="http://www.w3.org/2000/svg">
<path d="M310.182 -0.00617374C263.183 -0.154455 223.496 6.10733 185.592 20.747C110.759 49.6525 56.8343 99.9816 24.4318 170.993C-1.48339 227.788 -6.67323 286.881 8.34332 347.287C23.8047 409.488 57.1834 461.228 109.363 500.782C178.202 552.965 256.331 572.699 342.961 558.723C410.766 547.784 463.866 514.585 500.145 458.062C531.118 409.809 541.022 357.15 528.436 301.721C512.196 230.2 468.348 179.158 399.293 148.924C357.774 130.744 314.053 126.416 269.173 134.293C215.372 143.74 174.755 171.28 152.046 219.437C125.581 275.565 132.448 329.814 173.346 377.085C214.402 424.535 268.54 440.515 331.179 426.561C374.066 417.007 402.969 373.999 395.357 332.947C386.55 285.447 342.764 255.813 293.16 263.838C286.96 264.842 281.017 266.569 277.406 272.17C273.198 278.7 273.031 285.441 277.393 291.845C281.801 298.32 288.394 300.146 296.262 299.404C303.528 298.722 311.035 297.671 318.137 298.697C338.411 301.628 354.064 316.497 358.525 335.693C362.819 354.179 354.87 373.702 338.426 385.114C328.485 392.012 317.006 394.177 305.159 395.29C240.867 401.341 185.054 359.739 175.249 298.44C166.769 245.445 200.17 191.561 253.001 174.817C301.384 159.482 348.948 163.409 394.09 185.731C447.487 212.138 480.498 254.299 493.009 311.057C509.802 387.233 468.67 469.761 396.305 505.135C355.062 525.298 311.09 530.837 265.673 526.352C214.161 521.264 168.428 502.237 128.602 470.317C81.1771 432.307 52.1326 383.727 41.0764 325.437C31.8212 276.643 37.7277 229.258 58.657 183.819C83.5682 129.737 123.292 88.8575 178.252 62.5808C234.237 35.8099 293.859 29.3689 355.253 37.4811C404.019 43.9283 448.865 60.8663 489.794 87.319C525.088 110.127 554.762 138.38 578.586 172.309C581.969 177.128 585.135 182.089 588.357 187.01C590.022 189.556 592.135 190.977 595.354 189.883C599.077 188.62 598.496 185.805 597.619 183.201C596.714 180.514 595.509 177.9 594.199 175.367C571.898 132.227 541.235 95.6877 501.517 66.2878C443.261 23.1689 377.412 1.10593 310.182 -0.00617374ZM301.183 627.989C325.931 628.041 350.314 625.261 374.338 619.759C452.594 601.839 514.105 560.54 556.807 494.904C601.326 426.478 612.956 352.359 591.919 274.054C575.268 212.073 539.823 161.636 487.137 122.873C438.081 86.7815 382.345 67.4679 320.577 65.1665C280.18 63.6589 240.632 68.787 203.608 84.8786C130.632 116.595 86.1353 171.03 72.0517 246.842C61.0295 306.179 75.5672 360.867 112.406 409.617C137.95 443.422 171.548 467.58 211.939 482.667C250.437 497.048 290.167 500.748 330.941 493.995C383.071 485.361 423.089 459.715 447.212 414.066C474.589 362.26 470.783 311.041 438.155 262.399C418.405 232.959 389.942 213.605 355.303 203.244C324.21 193.942 292.746 193.562 261.904 204.158C218.856 218.949 196.015 265.052 209.901 307.584C223.502 349.239 270.029 374.048 313.83 363.004C323.453 360.579 329.193 351.954 327.45 342.532C325.792 333.558 317.068 327.42 307.331 328.443C305.285 328.659 303.268 329.125 301.239 329.468C278.722 333.283 255.936 321.668 246.801 301.724C237.49 281.394 243.619 257.966 261.712 244.176C271.879 236.428 283.859 234 296.293 232.675C359.915 225.9 416.954 267.978 426.685 328.887C435.588 384.601 400.031 439.307 343.86 454.837C294.51 468.482 246.884 462.986 201.915 439.206C121.222 396.538 84.9676 303.636 116.925 220.701C135.281 173.063 168.74 138.325 217.179 117.698C251.002 103.296 286.732 98.7676 323.413 100.704C380.174 103.701 430.901 122.517 473.921 158.133C540.602 213.333 570.789 283.93 563.733 368.5C559.408 420.334 538.526 466.029 503.531 505.459C461.101 553.268 406.633 580.289 342.526 589.865C294.322 597.063 246.767 594.131 200.012 580.554C150.038 566.041 106.169 541.39 68.3725 506.68C47.4617 487.474 29.3745 466.1 14.531 442.19C11.7754 437.751 9.11562 436.629 6.08204 438.211C3.19364 439.718 2.98976 442.57 5.24178 447.197C25.303 488.46 53.2756 523.954 89.5458 553.141C150.77 602.407 221.352 627.448 301.18 627.989H301.183Z" fill="#F2F2F2"/>
<path d="M310.182 -0.00617496C377.412 1.10593 443.264 23.1689 501.517 66.2878C541.235 95.6877 571.898 132.227 594.199 175.367C595.509 177.9 596.714 180.517 597.619 183.201C598.496 185.805 599.077 188.617 595.354 189.883C592.135 190.977 590.022 189.556 588.357 187.01C585.135 182.089 581.969 177.128 578.586 172.309C554.762 138.38 525.084 110.127 489.794 87.319C448.865 60.8694 404.019 43.9283 355.253 37.4811C293.862 29.3658 234.24 35.8099 178.252 62.5808C123.295 88.8575 83.5682 129.737 58.657 183.819C37.7277 229.261 31.8212 276.643 41.0764 325.437C52.1326 383.727 81.1771 432.307 128.602 470.317C168.428 502.237 214.161 521.264 265.673 526.352C311.09 530.837 355.059 525.298 396.305 505.135C468.67 469.761 509.802 387.23 493.009 311.057C480.495 254.296 447.487 212.138 394.09 185.731C348.951 163.406 301.384 159.482 253.001 174.817C200.173 191.561 166.772 245.445 175.249 298.44C185.057 359.739 240.867 401.341 305.159 395.29C317.003 394.174 328.485 392.012 338.426 385.114C354.87 373.702 362.822 354.179 358.525 335.693C354.064 316.497 338.411 301.628 318.137 298.697C311.035 297.671 303.525 298.718 296.262 299.404C288.394 300.143 281.801 298.32 277.393 291.845C273.031 285.441 273.198 278.704 277.406 272.17C281.017 266.569 286.957 264.842 293.16 263.838C342.764 255.813 386.55 285.447 395.357 332.947C402.969 373.999 374.066 417.007 331.179 426.561C268.54 440.515 214.402 424.538 173.346 377.085C132.448 329.814 125.581 275.565 152.046 219.437C174.755 171.28 215.368 143.737 269.173 134.293C314.053 126.416 357.774 130.744 399.293 148.924C468.348 179.161 512.196 230.203 528.436 301.721C541.022 357.147 531.118 409.806 500.145 458.062C463.866 514.585 410.766 547.784 342.961 558.723C256.331 572.699 178.202 552.965 109.363 500.782C57.1834 461.228 23.8047 409.488 8.34332 347.287C-6.67323 286.878 -1.48339 227.788 24.4318 170.993C56.8343 99.9816 110.759 49.6525 185.592 20.7501C223.496 6.11042 263.18 -0.154456 310.182 -0.00617496Z" fill="#F2F2F2"/>
<path d="M301.186 628.004C221.358 627.467 150.776 602.423 89.5513 553.156C53.2812 523.973 25.3086 488.475 5.24737 447.212C2.99844 442.585 3.19923 439.737 6.08763 438.226C9.12121 436.641 11.781 437.766 14.5366 442.205C29.3801 466.115 47.4673 487.492 68.378 506.695C106.171 541.405 150.044 566.057 200.018 580.57C246.773 594.147 294.328 597.078 342.531 589.88C406.638 580.307 461.107 553.283 503.537 505.475C538.531 466.044 559.414 420.349 563.739 368.515C570.795 283.946 540.607 213.348 473.927 158.148C430.907 122.532 380.182 103.716 323.418 100.72C286.734 98.7827 251.008 103.311 217.184 117.713C168.746 138.34 135.287 173.081 116.931 220.716C84.9701 303.652 121.228 396.553 201.921 439.221C246.89 462.998 294.516 468.497 343.866 454.852C400.036 439.32 435.59 384.613 426.69 328.903C416.959 267.993 359.92 225.915 296.298 232.69C283.868 234.015 271.888 236.44 261.718 244.191C243.625 257.981 237.496 281.406 246.807 301.739C255.941 321.683 278.727 333.299 301.244 329.483C303.274 329.14 305.291 328.674 307.336 328.458C317.076 327.435 325.797 333.57 327.456 342.548C329.198 351.966 323.459 360.591 313.836 363.02C270.034 374.063 223.508 349.251 209.906 307.6C196.017 265.068 218.859 218.965 261.91 204.173C292.749 193.578 324.212 193.961 355.308 203.259C389.947 213.62 418.414 232.974 438.16 262.414C470.785 311.053 474.594 362.275 447.218 414.081C423.094 459.73 383.077 485.376 330.947 494.011C290.173 500.763 250.443 497.063 211.945 482.682C171.551 467.595 137.956 443.437 112.411 409.632C75.5728 360.882 61.035 306.194 72.0573 246.857C86.1409 171.045 130.634 116.61 203.613 84.8937C240.637 68.8021 280.188 63.674 320.583 65.1815C382.354 67.4861 438.086 86.7997 487.142 122.888C539.832 161.648 575.274 212.088 591.925 274.069C612.962 352.374 601.331 426.493 556.813 494.919C514.111 560.555 452.599 601.854 374.344 619.775C350.319 625.276 325.936 628.057 301.189 628.004H301.186Z" fill="#F2F2F2"/>
</svg>
