<svg width="13" height="13" viewBox="0 0 13 13" fill="none" xmlns="http://www.w3.org/2000/svg">
<path d="M6.28864 -0.00013101C5.33578 -0.00313726 4.53117 0.123814 3.76269 0.420619C2.24554 1.00665 1.15226 2.02702 0.495331 3.46671C-0.0300743 4.61816 -0.135293 5.81622 0.169153 7.04089C0.482617 8.30195 1.15934 9.35095 2.21723 10.1529C3.61288 11.2108 5.19686 11.6109 6.95321 11.3276C8.32788 11.1058 9.40443 10.4327 10.14 9.28675C10.7679 8.30847 10.9687 7.24087 10.7135 6.1171C10.3843 4.66708 9.49531 3.63224 8.09527 3.01928C7.25352 2.6507 6.36711 2.56295 5.45722 2.72266C4.36645 2.91418 3.54299 3.47253 3.08259 4.44887C2.54604 5.5868 2.68526 6.68666 3.51443 7.64502C4.34678 8.60703 5.44438 8.93101 6.71433 8.64811C7.58383 8.4544 8.1698 7.58246 8.01548 6.75016C7.83692 5.78716 6.9492 5.18635 5.94354 5.34906C5.81784 5.36942 5.69734 5.40443 5.62413 5.51797C5.53883 5.65037 5.53544 5.78703 5.62388 5.91687C5.71325 6.04814 5.8469 6.08515 6.00642 6.07012C6.15373 6.05628 6.30592 6.03499 6.44991 6.05578C6.86095 6.11522 7.1783 6.41666 7.26874 6.80584C7.35579 7.18062 7.19465 7.57644 6.86126 7.8078C6.65972 7.94765 6.42699 7.99156 6.1868 8.0141C4.88334 8.1368 3.75179 7.29336 3.55301 6.05058C3.38109 4.97616 4.05824 3.8837 5.12935 3.54424C6.11026 3.23335 7.07458 3.31295 7.9898 3.76552C9.07236 4.30088 9.74163 5.15566 9.99529 6.30636C10.3357 7.85077 9.50182 9.52393 8.03471 10.2411C7.19853 10.6499 6.30705 10.7622 5.38626 10.6713C4.3419 10.5681 3.41472 10.1824 2.60729 9.53521C1.64579 8.7646 1.05694 7.77968 0.832784 6.59791C0.645143 5.60866 0.764892 4.64798 1.18921 3.72675C1.69426 2.63028 2.49963 1.80149 3.61388 1.26876C4.74893 0.726005 5.9577 0.595421 7.20241 0.759888C8.19109 0.890597 9.1003 1.234 9.93009 1.7703C10.6456 2.2327 11.2473 2.80552 11.7303 3.49339C11.7989 3.59109 11.863 3.69167 11.9284 3.79144C11.9621 3.84305 12.005 3.87186 12.0702 3.84969C12.1457 3.82408 12.1339 3.76702 12.1161 3.71422C12.0978 3.65973 12.0734 3.60675 12.0468 3.55539C11.5947 2.68076 10.973 1.93997 10.1678 1.34392C8.98669 0.469722 7.65166 0.0224159 6.28864 -0.00013101ZM6.10619 12.7319C6.60792 12.7329 7.10227 12.6766 7.58934 12.565C9.17589 12.2017 10.423 11.3644 11.2887 10.0337C12.1913 8.64642 12.4271 7.14373 12.0006 5.55618C11.663 4.29956 10.9444 3.277 9.87623 2.49111C8.88166 1.7594 7.75168 1.36784 6.49939 1.32118C5.68037 1.29062 4.87858 1.39458 4.12795 1.72082C2.64844 2.36385 1.74631 3.46746 1.46078 5.00447C1.23731 6.20747 1.53205 7.31622 2.27892 8.30458C2.79681 8.98995 3.47797 9.47972 4.29687 9.7856C5.07736 10.0771 5.88285 10.1522 6.70951 10.0153C7.7664 9.84022 8.57771 9.32026 9.06679 8.39477C9.62182 7.34446 9.54466 6.30605 8.88316 5.31987C8.48276 4.72301 7.90569 4.33063 7.20341 4.12057C6.57304 3.93199 5.93515 3.92428 5.30985 4.13911C4.4371 4.43898 3.97401 5.37367 4.25553 6.23597C4.53129 7.08048 5.47457 7.58346 6.3626 7.35956C6.55769 7.31039 6.67406 7.13553 6.63874 6.9445C6.60511 6.76256 6.42824 6.63812 6.23083 6.65885C6.18937 6.66323 6.14847 6.67269 6.10732 6.67964C5.65081 6.75699 5.18885 6.5215 5.00365 6.11716C4.81488 5.70499 4.93914 5.23 5.30597 4.95042C5.51208 4.79334 5.75496 4.74411 6.00705 4.71725C7.29692 4.5799 8.45333 5.43299 8.65061 6.66787C8.83111 7.7974 8.11024 8.90652 6.97143 9.22137C5.97091 9.498 5.00534 9.38659 4.09363 8.90446C2.45766 8.03941 1.72264 6.15593 2.37055 4.47449C2.74269 3.50867 3.42104 2.80439 4.40309 2.38621C5.08883 2.09423 5.81321 2.00241 6.55688 2.04168C7.70765 2.10243 8.7361 2.48391 9.60829 3.20598C10.9602 4.32512 11.5722 5.75641 11.4291 7.47097C11.3415 8.52185 10.9181 9.44828 10.2086 10.2477C9.34838 11.217 8.24408 11.7648 6.94438 11.9589C5.96709 12.1049 5.00296 12.0454 4.05505 11.7702C3.04188 11.4759 2.15247 10.9761 1.38618 10.2724C0.96224 9.88306 0.59554 9.44972 0.294601 8.96496C0.238735 8.87496 0.18481 8.85222 0.123307 8.88429C0.064748 8.91485 0.0606144 8.97266 0.106272 9.06648C0.512993 9.90304 1.08011 10.6227 1.81545 11.2144C3.05672 12.2132 4.4877 12.7209 6.10613 12.7319H6.10619Z" fill="white"/>
<path d="M6.28863 -0.000131035C7.65166 0.0224159 8.98675 0.469722 10.1678 1.34392C10.973 1.93997 11.5947 2.68076 12.0468 3.55539C12.0734 3.60675 12.0978 3.6598 12.1161 3.71422C12.1339 3.76702 12.1457 3.82401 12.0702 3.84969C12.005 3.87186 11.9621 3.84305 11.9284 3.79145C11.863 3.69167 11.7988 3.59109 11.7303 3.49339C11.2473 2.80552 10.6456 2.2327 9.93009 1.7703C9.1003 1.23406 8.19109 0.890597 7.20241 0.759888C5.95776 0.595358 4.74899 0.726005 3.61388 1.26876C2.49969 1.80149 1.69426 2.63028 1.18921 3.72675C0.764892 4.64804 0.645143 5.60866 0.832783 6.59791C1.05694 7.77968 1.64579 8.7646 2.60729 9.53521C3.41472 10.1824 4.3419 10.5681 5.38626 10.6713C6.30705 10.7622 7.19847 10.6499 8.03471 10.2411C9.50182 9.52393 10.3357 7.8507 9.99529 6.30637C9.74157 5.1556 9.07236 4.30088 7.9898 3.76552C7.07465 3.31289 6.11026 3.23335 5.12935 3.54424C4.05831 3.8837 3.38115 4.97616 3.55301 6.05058C3.75186 7.29336 4.88334 8.1368 6.1868 8.01411C6.42692 7.9915 6.65972 7.94766 6.86126 7.8078C7.19464 7.57645 7.35585 7.18062 7.26874 6.80584C7.1783 6.41666 6.86095 6.11522 6.44991 6.05578C6.30592 6.03499 6.15367 6.05622 6.00642 6.07012C5.8469 6.08509 5.71325 6.04814 5.62388 5.91687C5.53544 5.78703 5.53882 5.65044 5.62413 5.51797C5.69734 5.40443 5.81778 5.36942 5.94354 5.34906C6.9492 5.18635 7.83692 5.78716 8.01548 6.75016C8.1698 7.58246 7.58383 8.4544 6.71433 8.64811C5.44438 8.93101 4.34678 8.60709 3.51443 7.64503C2.68526 6.68666 2.54604 5.58681 3.08259 4.44888C3.54298 3.47253 4.36639 2.91412 5.45722 2.72266C6.36711 2.56295 7.25352 2.6507 8.09527 3.01928C9.49531 3.6323 10.3843 4.66714 10.7135 6.1171C10.9687 7.24081 10.7679 8.30841 10.14 9.28675C9.40443 10.4327 8.32788 11.1058 6.95321 11.3276C5.19686 11.6109 3.61288 11.2108 2.21723 10.1529C1.15934 9.35095 0.482617 8.30195 0.169153 7.04089C-0.135293 5.81616 -0.0300743 4.61817 0.495331 3.46671C1.15226 2.02702 2.24554 1.00665 3.76269 0.420682C4.53117 0.123877 5.33571 -0.00313729 6.28863 -0.000131035Z" fill="white"/>
<path d="M6.10624 12.7322C4.48781 12.7213 3.05683 12.2135 1.81556 11.2147C1.08022 10.623 0.513102 9.90335 0.106381 9.06679C0.0607863 8.97297 0.0648573 8.91523 0.123417 8.8846C0.18492 8.85247 0.238844 8.87527 0.294711 8.96527C0.595649 9.45003 0.962349 9.88343 1.38629 10.2727C2.15251 10.9765 3.04199 11.4762 4.05516 11.7705C5.00307 12.0457 5.9672 12.1052 6.94448 11.9593C8.24419 11.7652 9.34848 11.2173 10.2087 10.248C10.9182 9.44859 11.3416 8.52216 11.4293 7.47129C11.5723 5.75672 10.9603 4.32543 9.6084 3.20629C8.73621 2.48422 7.70782 2.10274 6.55699 2.04199C5.81325 2.00272 5.08894 2.09454 4.4032 2.38652C3.42115 2.8047 2.7428 3.50904 2.37065 4.4748C1.72268 6.15624 2.45777 8.03972 4.09374 8.90477C5.00545 9.38684 5.97102 9.49832 6.97154 9.22168C8.11035 8.90677 8.83116 7.79765 8.65072 6.66818C8.45343 5.4333 7.29703 4.58021 6.00716 4.71756C5.75513 4.74443 5.51225 4.79359 5.30607 4.95073C4.93925 5.23031 4.81499 5.70524 5.00376 6.11747C5.18896 6.52181 5.65092 6.7573 6.10743 6.67995C6.14858 6.673 6.18947 6.66354 6.23094 6.65916C6.42841 6.63843 6.60521 6.76281 6.63885 6.94482C6.67417 7.13578 6.5578 7.31064 6.36271 7.35987C5.47468 7.58377 4.5314 7.08073 4.25564 6.23628C3.97405 5.37399 4.43714 4.43929 5.30996 4.13942C5.9352 3.9246 6.57308 3.93236 7.20352 4.12088C7.9058 4.33094 8.48293 4.72332 8.88327 5.32019C9.5447 6.3063 9.62193 7.34477 9.0669 8.39508C8.57782 9.32057 7.76651 9.84053 6.70962 10.0156C5.88296 10.1525 5.07747 10.0775 4.29697 9.78592C3.47802 9.48003 2.79692 8.99026 2.27903 8.3049C1.53216 7.31653 1.23742 6.20778 1.46089 5.00478C1.74642 3.46777 2.64848 2.36416 4.12806 1.72114C4.87868 1.39489 5.68054 1.29093 6.49949 1.32149C7.75185 1.36821 8.88176 1.75978 9.87633 2.49143C10.9446 3.27725 11.6631 4.29988 12.0007 5.55649C12.4272 7.14404 12.1914 8.64673 11.2888 10.034C10.4231 11.3647 9.176 12.202 7.58945 12.5653C7.10237 12.6769 6.60803 12.7332 6.1063 12.7322H6.10624Z" fill="white"/>
</svg>
