<svg width="79" height="106" viewBox="0 0 79 106" fill="none" xmlns="http://www.w3.org/2000/svg">
<path d="M38.2349 13.6396C38.2349 13.6396 38.1491 13.6763 37.9777 13.7496C37.8104 13.811 37.6031 13.8918 37.356 13.9919C37.113 14.0801 36.8679 14.1743 36.6208 14.2745C36.3896 14.3668 36.1883 14.4497 36.0168 14.5229C35.8613 14.5885 35.7836 14.6212 35.7836 14.6212L34.0984 15.2314C34.045 15.3854 34.0255 15.5181 34.04 15.6293C34.0587 15.7287 34.0923 15.8996 34.1409 16.1422C34.1972 16.4007 34.2832 16.6695 34.3988 16.9485C34.5262 17.2317 34.6462 17.479 34.7586 17.6906C34.8829 17.9063 34.9585 18.052 34.9854 18.1277C35.0195 18.259 34.9809 18.3319 34.8697 18.3464C34.7584 18.3609 34.6276 18.3554 34.4772 18.3298C34.3309 18.2923 34.2181 18.2731 34.1388 18.2721C33.9497 18.1667 33.7855 17.9703 33.6462 17.683C33.5069 17.3958 33.3936 17.091 33.3063 16.7686C33.2308 16.4504 33.1902 16.204 33.1844 16.0294C33.0925 15.7586 33.0297 15.5377 32.9961 15.3667C32.9625 15.1958 32.9497 14.9457 32.9576 14.6166C32.8578 14.6749 32.7718 14.7314 32.6997 14.786C32.6277 14.8407 32.5273 14.9386 32.3987 15.0798C32.302 15.2056 32.1852 15.3509 32.0483 15.5158C31.9156 15.6689 31.7949 15.8063 31.6863 15.9279C31.5937 16.0418 31.5593 16.1029 31.583 16.1111C31.545 16.297 31.4959 16.4194 31.4357 16.4782C31.3755 16.5369 31.2736 16.6011 31.1299 16.6708L30.6439 16.5221C30.4722 16.2899 30.3873 16.0945 30.3892 15.9359C30.3953 15.7654 30.423 15.6091 30.4723 15.4669C30.673 15.271 30.8757 15.0692 31.0806 14.8615C31.3013 14.646 31.4907 14.4064 31.6486 14.1426C31.5775 14.1179 31.5023 14.1051 31.4229 14.1041C31.3477 14.0913 31.2409 14.0742 31.1023 14.0526C30.8629 14.1687 30.6436 14.2652 30.4443 14.3421C30.261 14.4113 30.0458 14.4959 29.7987 14.596C29.5634 14.7003 29.2383 14.853 28.8233 15.0542C28.5721 15.1662 28.3188 15.284 28.0634 15.4079C27.8081 15.5317 27.5643 15.6794 27.3322 15.8511C27.1603 15.9641 26.9053 15.8955 26.5672 15.6455L26.3858 14.9055C26.4187 14.8107 26.4712 14.736 26.5433 14.6814C26.6153 14.6267 26.701 14.5901 26.8004 14.5715C26.8602 14.5524 27.0056 14.4966 27.2368 14.4042C27.4721 14.3 27.7313 14.1842 28.0144 14.0567C28.3094 13.9334 28.5507 13.8312 28.7381 13.7502C28.7859 13.727 28.8935 13.6847 29.0609 13.6232C29.2442 13.5541 29.4195 13.4888 29.5868 13.4274C29.766 13.37 29.8615 13.3434 29.8734 13.3475C30.001 13.2856 30.2083 13.2049 30.4951 13.1052C30.7819 13.0056 31.005 12.9171 31.1646 12.8397C31.1119 12.609 31.0594 12.3585 31.0072 12.0881C30.9709 11.8101 30.9048 11.5415 30.8088 11.2825C30.756 11.0518 30.7054 10.8152 30.6568 10.5727C30.62 10.3343 30.5734 10.0858 30.5171 9.8273C30.6339 9.68197 30.7773 9.63215 30.9473 9.67785C31.1173 9.72355 31.2708 9.81664 31.4079 9.95713C31.6019 10.3165 31.7039 10.7302 31.7141 11.1984C31.7932 11.5444 31.8612 11.8268 31.918 12.0457C31.9789 12.2527 32.036 12.4517 32.0892 12.6427C32.1424 12.8337 32.199 13.0724 32.259 13.3587C32.4776 12.9965 32.7042 12.6304 32.9387 12.2604C33.1733 11.8904 33.3574 11.5892 33.4911 11.3568C33.5477 11.2702 33.5983 11.1816 33.6431 11.0909C33.6997 11.0044 33.7346 10.9036 33.7479 10.7888C33.7566 10.7254 33.7751 10.6721 33.8034 10.6288C33.8476 10.5778 33.8818 10.5366 33.906 10.5051C33.9585 10.4304 34.0244 10.3935 34.1037 10.3945C34.183 10.3955 34.2539 10.4399 34.3163 10.528C34.4529 10.7081 34.5674 10.9138 34.6598 11.1449C34.764 11.3802 34.7495 11.5942 34.6163 11.787C34.6122 11.7988 34.5373 11.9189 34.3918 12.1472C34.2503 12.3636 34.0885 12.6194 33.9065 12.9147C33.7285 13.1981 33.5688 13.448 33.4273 13.6645C33.2859 13.8809 33.2131 13.995 33.209 14.0069L33.3744 14.1041C33.6648 14.0322 33.9632 13.9565 34.2696 13.877C34.5801 13.7856 34.819 13.7091 34.9863 13.6477C35.1933 13.5868 35.4603 13.4869 35.7872 13.3481C36.1141 13.2093 36.4372 13.0625 36.7564 12.9077C37.0756 12.7529 37.3229 12.633 37.4985 12.5479C37.638 12.4901 37.7297 12.4555 37.7734 12.4441C37.8332 12.425 37.9323 12.4262 38.0709 12.4477C38.1724 12.5759 38.2578 12.7316 38.327 12.9149C38.4121 13.0905 38.4439 13.2475 38.4224 13.3861C38.3931 13.5087 38.3306 13.5932 38.2349 13.6396ZM45.2902 21.7224C45.1517 21.7009 45.0193 21.6616 44.893 21.6045C44.7668 21.5475 44.6588 21.4569 44.5691 21.3329C44.5546 21.2216 44.5324 21.0945 44.5024 20.9513C44.4883 20.8004 44.5215 20.6858 44.6017 20.6074C44.7103 20.4858 44.8098 20.2946 44.9003 20.034C45.0025 19.7774 45.126 19.5746 45.2706 19.4257C45.2906 19.4061 45.3027 19.3904 45.3068 19.3785C45.3269 19.3589 45.3411 19.3373 45.3493 19.3136C45.4022 19.1992 45.4832 19.0614 45.5923 18.9001C45.7173 18.731 45.8102 18.5973 45.8709 18.4989C45.8909 18.4793 45.9436 18.3848 46.029 18.2152C46.1143 18.0457 46.2038 17.8644 46.2974 17.6711C46.391 17.4779 46.4521 17.3399 46.4809 17.2569C46.5015 17.1977 46.5357 17.1564 46.5836 17.1332C46.6474 17.1023 46.6679 17.043 46.6452 16.9555C46.394 17.0675 46.0727 17.2281 45.6815 17.4376C45.3021 17.6511 44.9325 17.8747 44.5727 18.1083C44.217 18.33 43.929 18.5288 43.7087 18.7046C43.6685 18.7438 43.6245 18.775 43.5766 18.7982C43.5288 18.8214 43.4868 18.8467 43.4508 18.874C43.3787 18.9287 43.2969 18.9733 43.2052 19.0079C43.1136 19.0425 43.0335 19.101 42.9651 19.1834C42.6938 19.315 42.4621 19.447 42.2701 19.5796C42.09 19.7162 41.8545 19.8402 41.5636 19.9517C41.3972 19.9338 41.2591 19.8727 41.1493 19.7682C41.0514 19.6679 40.9455 19.5714 40.8316 19.4788C40.8284 19.4113 40.8194 19.3418 40.8044 19.2702C40.7935 19.1868 40.7865 19.1113 40.7833 19.0439C40.9134 18.7837 41.0818 18.4704 41.2886 18.104C41.4994 17.7258 41.6964 17.3494 41.8794 16.9749C42.0743 16.6044 42.1969 16.3084 42.2472 16.0869C42.2559 16.0235 42.2664 15.9741 42.2787 15.9385C42.2911 15.903 42.3232 15.8677 42.3752 15.8326C42.3834 15.8089 42.3917 15.7852 42.3999 15.7615C42.4199 15.7419 42.432 15.7262 42.4361 15.7144C42.3975 15.6346 42.4062 15.5712 42.4623 15.5243C42.5184 15.4774 42.5389 15.4182 42.5239 15.3466C42.5162 15.3306 42.5025 15.3126 42.4829 15.2925C42.4752 15.2766 42.4615 15.2586 42.4419 15.2385C42.0415 15.5509 41.6256 15.8314 41.1942 16.08C40.7788 16.3209 40.3631 16.5816 39.9472 16.8621C39.6713 17.0452 39.3869 17.2718 39.0941 17.5419C38.8131 17.8161 38.5171 18.0188 38.2062 18.1498C38.0944 18.204 37.9786 18.27 37.8587 18.3479C37.7547 18.418 37.6371 18.4701 37.5057 18.5042C37.4533 18.5789 37.3833 18.6277 37.2957 18.6504C37.2242 18.6654 37.141 18.6565 37.0462 18.6236C36.8684 18.5619 36.7113 18.441 36.5746 18.2609C36.438 18.0807 36.3905 17.9116 36.4321 17.7534C36.4608 17.6705 36.5252 17.5999 36.625 17.5416C36.6451 17.522 36.6592 17.5004 36.6675 17.4767C36.6875 17.4571 36.7056 17.4434 36.7215 17.4357C36.9795 17.419 37.2643 17.3253 37.5757 17.1545C37.899 16.9879 38.2166 16.7994 38.5286 16.589C38.8446 16.3668 39.1244 16.1917 39.3679 16.0638C39.5913 15.9554 39.7813 15.8288 39.9377 15.684C40.0983 15.5273 40.2805 15.3847 40.4843 15.2563C40.7402 15.0928 41.0022 14.9116 41.2703 14.7126C41.5503 14.5177 41.8224 14.3266 42.0864 14.1394C42.3623 13.9564 42.628 13.8029 42.8833 13.6791C42.9498 13.7553 43.0184 13.8255 43.089 13.8899C43.1715 13.9583 43.266 14.011 43.3726 14.048C43.4072 14.1396 43.4359 14.2292 43.4586 14.3168C43.4973 14.3966 43.5419 14.4784 43.5925 14.5623C43.709 14.7621 43.7558 14.9907 43.7329 15.2482C43.7099 15.5058 43.6511 15.7708 43.5566 16.0433C43.421 16.4344 43.2418 16.8169 43.0191 17.191C42.8123 17.5574 42.6439 17.8706 42.5138 18.1308C42.5097 18.1427 42.5056 18.1545 42.5015 18.1664C42.5134 18.1705 42.5172 18.1785 42.5131 18.1903C42.8519 18.0556 43.1734 17.8751 43.4776 17.6487C43.7818 17.4224 44.0917 17.2179 44.4072 17.0354C44.9905 16.6934 45.4219 16.4448 45.7014 16.2896C45.9928 16.1384 46.2082 16.0339 46.3478 15.9761C46.4873 15.9183 46.6268 15.8605 46.7663 15.8027C46.8698 15.7723 46.9913 15.7281 47.1309 15.6703C47.2863 15.6048 47.4918 15.5101 47.7471 15.3863C47.8419 15.4192 47.9308 15.45 48.0137 15.4788C48.1085 15.5117 48.1974 15.5425 48.2803 15.5713C48.3546 15.6634 48.4092 15.7355 48.4443 15.7875C48.4835 15.8276 48.5523 15.878 48.6507 15.9387C48.642 16.0021 48.6348 16.0992 48.6293 16.23C48.6237 16.3608 48.5988 16.4517 48.5546 16.5027C48.5021 16.5775 48.4615 16.6563 48.4327 16.7392C48.4039 16.8222 48.3455 16.8949 48.2575 16.9572C48.1134 17.0666 47.9423 17.2727 47.7443 17.5757C47.5622 17.871 47.3861 18.1683 47.2158 18.4677C47.0616 18.7593 46.9559 18.9682 46.8988 19.0945C46.7733 19.3031 46.6725 19.4407 46.5963 19.5072C46.5243 19.5619 46.462 19.6266 46.4095 19.7013C46.3571 19.776 46.3182 19.8688 46.2931 19.9795C46.2721 20.0784 46.2294 20.1632 46.1651 20.2338C46.1491 20.2415 46.1332 20.2493 46.1172 20.257C46.1172 20.257 46.1092 20.2609 46.0933 20.2686C46.0521 20.3871 46.009 20.5115 45.9638 20.6419C45.9345 20.7645 45.8738 20.8629 45.7817 20.9371C45.7766 21.0283 45.7517 21.1192 45.707 21.2099C45.6622 21.3006 45.6412 21.3995 45.6439 21.5066C45.58 21.5375 45.5221 21.5706 45.4701 21.6056C45.4181 21.6407 45.3582 21.6796 45.2902 21.7224ZM47.4733 22.7784C47.3311 22.7291 47.2129 22.6682 47.1186 22.5956C47.0402 22.5154 46.9838 22.4294 46.9492 22.3377C46.9305 22.2384 46.9119 22.139 46.8933 22.0396C46.8788 21.9284 46.8723 21.8132 46.8737 21.6943C46.9303 21.6077 47.0165 21.5314 47.1323 21.4654C47.2481 21.3994 47.3628 21.4325 47.4762 21.5648C47.4999 21.573 47.5195 21.5931 47.5349 21.625C47.5504 21.6569 47.5718 21.6909 47.5991 21.7269C48.1074 21.6776 48.5533 21.5402 48.9369 21.3148C49.3363 21.0817 49.7363 20.8089 50.1367 20.4965C49.9558 20.3673 49.7873 20.2027 49.6311 20.0025C49.4867 19.8063 49.3977 19.6228 49.3641 19.4518C49.3114 19.2212 49.3124 18.9693 49.3673 18.6963C49.4222 18.4233 49.4419 18.2708 49.4264 18.2389C49.6153 18.0389 49.7503 17.8601 49.8316 17.7024C49.9247 17.5489 50.0276 17.4053 50.1402 17.2719C50.257 17.1265 50.4354 16.976 50.6752 16.8203C50.8631 16.6996 51.0765 16.601 51.3154 16.5246C51.5585 16.4364 51.7853 16.3756 51.9959 16.3425C52.2065 16.3094 52.3533 16.3072 52.4362 16.336C52.5501 16.4286 52.6766 16.4658 52.8157 16.4477C52.9547 16.4295 53.0752 16.4647 53.1773 16.5532C53.2206 16.5815 53.26 16.6018 53.2955 16.6142C53.3471 16.6187 53.3826 16.6311 53.4022 16.6511C53.6779 16.8132 53.9098 16.9865 54.0979 17.1713C54.286 17.356 54.3663 17.6029 54.3388 17.9119C54.1932 18.1402 54.0417 18.3664 53.8843 18.5906C53.7429 18.807 53.5658 19.0111 53.3533 19.2029C53.1567 19.3869 52.956 19.5828 52.7512 19.7905C52.5623 19.9905 52.348 20.1684 52.1081 20.3241L52.1067 20.4431C52.2288 20.512 52.3785 20.5971 52.5557 20.6984C52.7489 20.792 52.8515 20.8408 52.8633 20.845C52.9813 20.9257 53.0733 21.024 53.1394 21.1398C53.2213 21.2479 53.3051 21.3699 53.3907 21.5058C53.3861 21.5573 53.3697 21.6047 53.3414 21.648C53.3131 21.6913 53.2709 21.7364 53.2148 21.7833C52.994 21.9988 52.7653 22.2181 52.5286 22.4413C52.2959 22.6527 52.0672 22.872 51.8423 23.0993C51.7538 23.2014 51.661 23.3351 51.5638 23.5005C51.4666 23.6659 51.3698 23.7916 51.2736 23.8777C51.13 23.9474 51.0363 23.9879 50.9925 23.9992C50.9647 24.0029 50.943 23.9887 50.9276 23.9568C50.9121 23.9249 50.851 23.8904 50.7444 23.8534C50.5908 23.7603 50.5091 23.6324 50.4992 23.4697C50.5042 23.3785 50.4954 23.2892 50.4727 23.2016C50.4618 23.1182 50.4846 23.0332 50.5412 22.9466C50.5896 22.8838 50.6359 22.8268 50.6801 22.7758C50.7285 22.7129 50.7807 22.658 50.8368 22.6111C50.9974 22.4544 51.1461 22.2936 51.283 22.1287C51.4198 21.9638 51.5606 21.8068 51.7052 21.6579C51.769 21.6269 51.8153 21.57 51.8441 21.487L51.7197 21.4438C51.6527 21.4073 51.5738 21.3667 51.4832 21.322C51.4084 21.2695 51.3198 21.2189 51.2173 21.17C51.1416 21.1969 51.052 21.2255 50.9485 21.256C50.8491 21.2746 50.7531 21.3409 50.6605 21.4548C50.4809 21.5517 50.3009 21.6685 50.1208 21.8052C49.9566 21.9341 49.7708 22.0488 49.5633 22.1494C49.3558 22.25 49.1484 22.3506 48.9409 22.4512C48.7453 22.5559 48.5319 22.6545 48.3007 22.7469C47.9742 22.846 47.6984 22.8565 47.4733 22.7784ZM50.8886 19.8214C50.952 19.8301 51.0596 19.7878 51.2114 19.6945C51.3793 19.5934 51.5512 19.4804 51.7272 19.3557C51.9192 19.2231 52.0873 19.1022 52.2314 18.9929C52.3796 18.8718 52.4658 18.7955 52.49 18.764C52.4818 18.7877 52.524 18.7426 52.6166 18.6287C52.7092 18.5148 52.816 18.3793 52.9369 18.2221C53.0696 18.069 53.1923 17.9258 53.305 17.7923C53.4177 17.6588 53.4761 17.5861 53.4802 17.5743C53.3632 17.4142 53.2572 17.3177 53.1624 17.2848C53.0677 17.2519 52.9469 17.2366 52.8001 17.2388C52.3206 17.2052 51.8893 17.2812 51.5063 17.467C51.1273 17.6408 50.7967 17.9244 50.5142 18.3176C50.2797 18.6876 50.1862 19.0335 50.2339 19.3553C50.2975 19.6695 50.5157 19.8248 50.8886 19.8214ZM53.875 24.6607C53.7853 24.5366 53.7231 24.4288 53.6885 24.3371C53.6539 24.2455 53.6652 24.1366 53.7223 24.0103C53.8076 23.8408 53.9069 23.6695 54.02 23.4963C54.1373 23.3114 54.2644 23.1364 54.4012 22.9715C54.5108 22.7705 54.6262 22.5716 54.7476 22.3748C54.8809 22.1821 55.0455 22.0135 55.2416 21.8691C55.6404 21.3703 56.0152 20.883 56.366 20.4073C56.7328 19.9239 57.1918 19.3663 57.7429 18.7344C57.8473 18.6246 57.9335 18.5483 58.0015 18.5055C58.0854 18.455 58.1634 18.4024 58.2354 18.3477C58.2637 18.3044 58.3075 18.2931 58.3667 18.3136C58.4419 18.3264 58.5149 18.365 58.5855 18.4293C58.6602 18.4818 58.711 18.5459 58.7378 18.6216C58.7893 18.6262 58.8278 18.7258 58.8532 18.9205C58.8904 19.1192 58.8807 19.2619 58.8242 19.3485C58.8077 19.3959 58.7733 19.4569 58.7208 19.5316C58.6683 19.6064 58.6061 19.6711 58.534 19.7257C58.4702 19.7567 58.3981 19.8113 58.3178 19.8897C58.2416 19.9562 58.1315 20.0441 57.9874 20.1534C57.7538 20.444 57.5565 20.6876 57.3954 20.8839C57.2344 21.0803 57.0453 21.3001 56.8282 21.5434C56.7041 21.6331 56.5835 21.7704 56.4662 21.9554C56.3489 22.1404 56.2337 22.3195 56.1205 22.4926C55.9636 22.6771 55.8188 22.8459 55.686 22.999C55.5651 23.1562 55.4964 23.2585 55.48 23.3059C55.3066 23.5378 55.151 23.7758 55.0132 24.0201C54.8795 24.2525 54.7264 24.445 54.554 24.5976C54.4805 24.7712 54.3861 24.8712 54.2707 24.8975C54.1672 24.928 54.0353 24.8491 53.875 24.6607ZM58.0242 26.4187C57.8428 26.3292 57.713 26.2443 57.6346 26.1641C57.5604 26.0719 57.4258 25.8859 57.2309 25.6058C57.1381 25.4143 57.0186 25.1273 56.8725 24.7447C56.7265 24.3622 56.5865 23.9619 56.4528 23.5438C56.3232 23.1138 56.2165 22.7516 56.1329 22.4571L57.2007 21.7323C57.289 21.9753 57.3517 22.1962 57.389 22.395C57.4262 22.5938 57.4642 22.7331 57.5029 22.8129C57.6356 23.3103 57.7359 23.7101 57.8036 24.0124C57.8832 24.3188 57.9614 24.5716 58.0383 24.7708C58.1152 24.9701 58.2042 25.1536 58.3053 25.3214C58.4182 25.4934 58.5646 25.6835 58.7446 25.892C58.7719 25.928 58.7951 25.9759 58.8142 26.0356C58.8333 26.0953 58.8205 26.1705 58.7758 26.2612C58.6832 26.3751 58.6011 26.4396 58.5295 26.4546C58.4739 26.4618 58.3054 26.4499 58.0242 26.4187ZM56.1474 22.2431C56.1461 22.017 56.2397 21.8238 56.4281 21.6634C56.6324 21.4954 56.826 21.3966 57.0088 21.3671C57.085 21.3006 57.1509 21.2637 57.2065 21.2564C57.2781 21.2414 57.328 21.2123 57.3563 21.169C57.3964 21.1298 57.4783 21.0852 57.6018 21.0352C57.7373 20.9892 57.8588 20.9451 57.9664 20.9028C58.1971 20.85 58.4597 20.7818 58.7542 20.6982C59.0647 20.6067 59.3633 20.5112 59.6501 20.4116C59.9369 20.3119 60.1799 20.2237 60.3792 20.1468C60.5903 20.074 60.7198 20.026 60.7676 20.0028C60.8196 19.9677 60.8773 19.9545 60.9407 19.9632C61.02 19.9642 61.1047 20.0069 61.1949 20.0913C61.3248 20.1761 61.399 20.2683 61.4177 20.3676C61.4404 20.4552 61.4148 20.6056 61.3408 20.8189C61.3311 20.9615 61.2285 21.0852 61.0328 21.1899C60.8532 21.2869 60.5962 21.377 60.2621 21.4602C60.1467 21.4866 59.9855 21.5302 59.7786 21.5911C59.5834 21.6562 59.4081 21.7215 59.2526 21.787C59.1532 21.8057 59 21.8454 58.793 21.9064C58.602 21.9596 58.4288 22.019 58.2733 22.0845C58.1579 22.1109 57.9965 22.1743 57.789 22.2749C57.5857 22.3637 57.3946 22.4169 57.2159 22.4346C56.7135 22.6585 56.3989 22.7618 56.2722 22.7444C56.1454 22.7269 56.1038 22.5599 56.1474 22.2431ZM61.796 27.2691C61.693 27.26 61.5645 27.2286 61.4104 27.1752C61.2605 27.1099 61.1304 27.0449 61.0201 26.9801C60.9258 26.9075 60.8848 26.8535 60.8972 26.8179C60.9177 26.7587 60.8984 26.7188 60.8391 26.6982C60.8391 26.6982 60.8177 26.6643 60.7749 26.5963C60.744 26.5325 60.6834 26.4584 60.5932 26.374C60.5441 26.1711 60.5524 25.9749 60.6182 25.7853C60.6881 25.5838 60.8503 25.2883 61.1049 24.8988C61.2433 24.6149 61.475 24.3103 61.8003 23.985C62.1414 23.6521 62.5262 23.3275 62.9544 23.0115C63.3827 22.6954 63.8084 22.4249 64.2315 22.2C64.6665 21.9792 65.0411 21.837 65.3552 21.7734C65.5787 21.6651 65.8109 21.6461 66.052 21.7165C66.2931 21.7868 66.4997 21.9182 66.6719 22.1107C66.7699 22.2111 66.8555 22.347 66.9287 22.5184C67.002 22.6899 67.0653 22.8711 67.1185 23.0621C67.1717 23.2532 67.2071 23.438 67.2248 23.6167C67.2151 23.7594 67.1918 23.884 67.1548 23.9907C67.1337 24.0896 67.0926 24.2081 67.0314 24.3462C66.9821 24.4883 66.8904 24.6955 66.7562 24.9675C66.6229 25.1602 66.4792 25.4024 66.3249 25.6941C66.1825 25.9898 66.0722 26.2502 65.9941 26.4754C65.8923 26.6923 65.8605 26.8605 65.8987 26.9799C65.9488 27.1035 66.0652 27.1505 66.248 27.121C66.4149 27.0992 66.5614 27.1169 66.6877 27.174C66.818 27.2192 66.9064 27.2897 66.9528 27.3854C67.0111 27.4853 67.0156 27.6063 66.9663 27.7485C66.9169 27.8907 66.7945 28.0141 66.5988 28.1188C66.4192 28.2158 66.2101 28.2827 65.9717 28.3195C65.7492 28.3485 65.5491 28.3322 65.3714 28.2705C65.241 28.2253 65.1433 28.1051 65.0783 27.91C65.0174 27.703 64.9785 27.4705 64.9618 27.2125C64.9611 26.9467 64.9622 26.6949 64.9651 26.4569L65.0003 26.0111L63.9832 26.4747C63.7716 26.5872 63.5641 26.6878 63.3608 26.7765C63.1734 26.8575 63.0516 26.9215 62.9955 26.9684C62.8993 27.0545 62.7497 27.1221 62.5468 27.1712C62.3558 27.2244 62.1055 27.257 61.796 27.2691ZM62.2131 26.239C62.4556 26.1904 62.7463 26.0987 63.0851 25.964C63.428 25.8175 63.7711 25.6511 64.1145 25.4649C64.4619 25.2668 64.7597 25.0781 65.0078 24.8986C65.3038 24.696 65.5462 24.4947 65.7351 24.2947C65.9239 24.0947 66.079 23.8963 66.2004 23.6995C66.1982 23.5527 66.1685 23.3897 66.1112 23.2105C66.058 23.0195 65.992 22.9036 65.9131 22.863C65.6524 22.7726 65.3164 22.8419 64.9051 23.0709C64.5098 23.2922 64.1101 23.5451 63.706 23.8297C63.638 23.8725 63.54 23.9447 63.4118 24.0463C63.2837 24.1479 63.1576 24.2435 63.0335 24.3332C62.9254 24.4152 62.8534 24.4699 62.8173 24.4972C62.7654 24.5322 62.647 24.6438 62.4622 24.832C62.2935 25.0124 62.1226 25.1987 61.9497 25.391C61.781 25.5714 61.6842 25.6971 61.6596 25.7682C61.6349 25.8393 61.6141 25.9184 61.5972 26.0054C61.5921 26.0966 61.6329 26.1705 61.7194 26.227C61.806 26.2836 61.9706 26.2876 62.2131 26.239ZM71.5004 31.1733C71.401 31.1919 71.2946 31.1351 71.1812 31.0028C71.0796 30.8746 70.9924 30.705 70.9197 30.4939C70.886 30.3229 70.8802 30.1484 70.9022 29.9701C70.9361 29.796 71.0044 29.5609 71.1071 29.2646C71.2012 29.0318 71.2428 28.8736 71.2319 28.7902C71.2329 28.7109 71.1636 28.7001 71.0241 28.7579C70.8886 28.8039 70.6454 28.912 70.2943 29.0822C69.8953 29.2757 69.5308 29.4081 69.2007 29.4794C68.8825 29.5549 68.6425 29.5579 68.4807 29.4885C68.3977 29.4597 68.3173 29.3854 68.2395 29.2655C68.1776 29.1378 68.1277 28.9944 68.09 28.8353C68.0564 28.6643 68.0346 28.4975 68.0247 28.3347C68.044 28.0494 68.1473 27.7135 68.3344 27.3271C68.5375 26.9329 68.7824 26.5333 69.0689 26.1282C69.3554 25.7232 69.6515 25.348 69.9572 25.0027C70.2747 24.6615 70.5654 24.3973 70.8295 24.2101C71.1054 24.0271 71.3145 23.9602 71.4566 24.0095C71.5514 24.0424 71.6179 24.1186 71.6561 24.238C71.7062 24.3616 71.7378 24.5385 71.7508 24.7687C71.7695 24.8681 71.7626 24.9453 71.7302 25.0005C71.7096 25.0597 71.6376 25.1144 71.514 25.1644C71.358 25.2696 71.1596 25.4397 70.9188 25.6748C70.6898 25.9139 70.4526 26.1768 70.2071 26.4634C69.9736 26.754 69.7559 27.037 69.5543 27.3122C69.3526 27.5873 69.1991 27.8195 69.0936 28.0086C68.9923 28.1858 68.9654 28.2827 69.0128 28.2991C69.1786 28.3567 69.3968 28.3593 69.6671 28.3071C69.9534 28.2471 70.2381 28.1534 70.5213 28.026C70.8565 27.8635 71.1702 27.667 71.4626 27.4365C71.7667 27.2102 72.0771 26.966 72.3936 26.7041C72.6299 26.5206 72.8803 26.3154 73.1448 26.0886C73.4212 25.8659 73.6037 25.7035 73.6922 25.6014C73.9649 25.3509 74.1613 25.1867 74.2812 25.1088C74.4052 25.0191 74.5327 24.977 74.6635 24.9826C74.7227 25.0031 74.7761 25.0216 74.8235 25.0381C74.8827 25.0586 74.9123 25.0689 74.9123 25.0689C74.9793 25.1054 75.0438 25.1875 75.1057 25.3152C75.184 25.3955 75.2209 25.4614 75.2163 25.5129C75.2158 25.5525 75.2053 25.602 75.1848 25.6612C75.0963 25.7633 74.9576 25.9143 74.7687 26.1143C74.5958 26.3065 74.4672 26.4478 74.3828 26.538C73.9809 26.9694 73.5811 27.3949 73.1833 27.8144C72.8015 28.2262 72.4748 28.6705 72.2033 29.1471C72.122 29.3047 72.0483 29.4982 71.982 29.7274C71.9318 29.949 71.9139 30.1153 71.9284 30.2266C71.9393 30.31 71.952 30.4073 71.9665 30.5185C71.9969 30.622 72.0374 30.7157 72.088 30.7996C72.17 30.9077 72.161 30.9909 72.0612 31.0492C71.9731 31.1116 71.8655 31.1539 71.7383 31.1762C71.6153 31.1866 71.5359 31.1856 71.5004 31.1733ZM73.8281 23.7171C73.4444 23.6371 73.1733 23.4235 73.0149 23.0765C72.8565 22.7295 72.8005 22.2787 72.8469 21.724C72.8561 21.6209 72.873 21.5339 72.8977 21.4628C72.9383 21.384 72.9866 21.3211 73.0427 21.2742C73.0829 21.235 73.1426 21.2159 73.2219 21.2169C73.3054 21.206 73.3667 21.2206 73.4058 21.2607C73.5512 21.3775 73.6429 21.4957 73.6811 21.6151C73.7353 21.7268 73.7516 21.852 73.7301 21.9905C73.7333 22.058 73.7246 22.1213 73.704 22.1806C73.6953 22.2439 73.693 22.2697 73.6971 22.2579C73.6906 22.468 73.7224 22.625 73.7925 22.729C73.8627 22.833 74.0069 22.8764 74.2253 22.8592C74.4555 22.8462 74.6839 22.8192 74.9104 22.7783C75.1489 22.7416 75.3718 22.6729 75.5793 22.5723C75.7549 22.4872 75.9204 22.4118 76.0759 22.3463C76.2432 22.2849 76.4067 22.2155 76.5663 22.1381L76.5902 22.1265C76.6499 22.1074 76.7133 22.1161 76.7803 22.1526C76.8472 22.1891 76.8826 22.2212 76.8862 22.2491C76.9404 22.3608 76.953 22.4581 76.9243 22.541C76.8955 22.624 76.8647 22.7129 76.8318 22.8076L76.8017 22.837C76.8007 22.9163 76.6942 23.0321 76.4821 23.1842C76.2819 23.3404 76.0624 23.4567 75.8234 23.5331C75.6123 23.6059 75.3935 23.6627 75.1669 23.7036C74.9403 23.7445 74.7099 23.7774 74.4756 23.8023C74.3762 23.8209 74.277 23.8197 74.1781 23.7987C74.0952 23.7699 73.9785 23.7427 73.8281 23.7171Z" fill="#A9A9A9"/>
<path d="M33.5792 24.9815C46.0216 25.9451 59.1865 30.8054 68.4571 40.8664C71.3704 44.028 73.9782 48.1174 74.3159 52.8824C74.8398 60.2761 67.1474 64.1649 62.3042 66.3253C52.7854 70.5713 42.5278 71.7532 32.5245 73.5912C24.7492 75.0197 15.6152 76.3738 9.56654 82.8371C4.67295 88.0661 3.32415 97.2149 5.56804 104.365" stroke="#A9A9A9" stroke-width="1.06728" stroke-linecap="round"/>
<path d="M0.698856 99.3796C2.23443 101.21 3.67634 103.222 5.40051 104.885C5.71802 105.191 5.67907 104.36 5.69774 104.216C5.99475 101.921 6.43793 99.6665 6.8843 97.3975" stroke="#A9A9A9" stroke-width="1.06728" stroke-linecap="round"/>
</svg>
