<svg width="84" height="37" viewBox="0 0 84 37" fill="none" xmlns="http://www.w3.org/2000/svg">
<path d="M10.0628 14.9905L7.10204 16.5671C6.63411 15.6117 6.05695 15.134 5.36729 15.134C5.03794 15.134 4.75752 15.2432 4.52274 15.46C4.28959 15.6769 4.1722 15.9557 4.1722 16.2964C4.1722 16.8915 4.86186 17.4801 6.24281 18.0638C8.14223 18.8806 9.4221 19.6355 10.0808 20.3252C10.7395 21.0148 11.0672 21.9442 11.0672 23.1115C11.0672 24.6082 10.5145 25.8604 9.41069 26.8696C8.33788 27.825 7.04334 28.3027 5.52544 28.3027C2.92494 28.3027 1.08259 27.0343 0 24.4974L3.05701 23.0805C3.48091 23.824 3.80536 24.2968 4.02873 24.4974C4.46404 24.9017 4.98414 25.1022 5.58902 25.1022C6.79878 25.1022 7.40366 24.5512 7.40366 23.4458C7.40366 22.8083 6.93573 22.2148 6.00314 21.6621C5.64282 21.4811 5.28088 21.3067 4.92056 21.1371C4.56024 20.9675 4.1934 20.7931 3.82166 20.6121C2.78147 20.1034 2.04942 19.5931 1.62388 19.0828C1.08259 18.4355 0.811941 17.6024 0.811941 16.5834C0.811941 15.235 1.27334 14.1215 2.19778 13.2394C3.14179 12.359 4.28959 11.9172 5.6363 11.9172C7.6205 11.9172 9.09602 12.9411 10.0628 14.9905Z" fill="#1D1D1B"/>
<path d="M16.3447 15.69V27.8544H12.7627V15.69H11.2334V12.346H12.7627V6.66241H16.3447V12.346H19.1311V15.69H16.3447Z" fill="#1D1D1B"/>
<path d="M34.3461 20.9447H23.2332C23.3294 22.2181 23.7419 23.2322 24.4756 23.9854C25.2076 24.7289 26.1468 25.1006 27.2946 25.1006C28.1864 25.1006 28.9233 24.8887 29.507 24.4631C30.0809 24.0392 30.7331 23.2534 31.4651 22.1072L34.4895 23.7947C34.0216 24.5903 33.5292 25.2734 33.0091 25.8408C32.489 26.4082 31.9314 26.8761 31.338 27.2413C30.7429 27.6082 30.1021 27.8756 29.4108 28.0451C28.7212 28.2147 27.9728 28.2995 27.1658 28.2995C24.8522 28.2995 22.9936 27.556 21.593 26.0707C20.1925 24.574 19.4915 22.5898 19.4915 20.1165C19.4915 17.6432 20.1713 15.6801 21.5295 14.1622C22.899 12.6655 24.7136 11.9172 26.975 11.9172C29.2364 11.9172 31.0608 12.6443 32.3879 14.0987C33.7037 15.5416 34.3624 17.5437 34.3624 20.1018L34.3461 20.9463V20.9447ZM30.6679 18.0149C30.169 16.104 28.9641 15.1486 27.0533 15.1486C26.6179 15.1486 26.2087 15.2155 25.8272 15.3475C25.4457 15.4796 25.0968 15.672 24.7837 15.9214C24.4707 16.1709 24.2033 16.4709 23.98 16.8214C23.7566 17.172 23.587 17.5698 23.4713 18.0149H30.6679Z" fill="#1D1D1B"/>
<path d="M40.2155 36.2933H36.6335V12.346H40.2155V14.0334C41.6275 12.6215 43.2302 11.9155 45.0236 11.9155C47.1578 11.9155 48.9137 12.7014 50.2931 14.2715C51.6936 15.8318 52.3946 17.8013 52.3946 20.1784C52.3946 22.5555 51.7001 24.4403 50.3094 25.9892C48.93 27.5283 47.1888 28.2978 45.0872 28.2978C43.2725 28.2978 41.6487 27.5707 40.2155 26.1163V36.2901V36.2933ZM48.7344 20.1963C48.7344 18.711 48.3301 17.4997 47.5246 16.5654C46.7078 15.6214 45.6774 15.1486 44.435 15.1486C43.1193 15.1486 42.0514 15.6051 41.2345 16.5182C40.4177 17.4312 40.0085 18.6312 40.0085 20.1165C40.0085 21.6018 40.4177 22.7708 41.2345 23.7148C42.0416 24.6376 43.103 25.1006 44.4187 25.1006C45.6611 25.1006 46.685 24.6343 47.492 23.7001C48.3203 22.7659 48.7344 21.5985 48.7344 20.198V20.1963Z" fill="#1D1D1B"/>
<path d="M58.1369 0.962524V27.8544H54.5549V0.962524H58.1369Z" fill="#1D1D1B"/>
<path d="M66.2188 24.9734L59.2456 12.3476H63.4015L68.146 21.2643L72.5725 12.3476H76.6159L64.2607 36.295H60.1684L66.2188 24.9751V24.9734Z" fill="#1D1D1B"/>
<path d="M80.4199 20.1543C79.8427 20.1527 79.3568 20.2293 78.8922 20.4087C77.9743 20.7625 77.3139 21.3804 76.9161 22.251C76.5982 22.9472 76.5346 23.6727 76.7188 24.4129C76.908 25.176 77.3172 25.8102 77.958 26.2961C78.8025 26.9352 79.7595 27.1781 80.8226 27.0069C81.6541 26.8732 82.3046 26.4656 82.7497 25.7727C83.1296 25.1809 83.2502 24.5352 83.097 23.8553C82.8981 22.9782 82.36 22.3521 81.5139 21.982C81.0052 21.7586 80.4688 21.7065 79.9177 21.8027C79.2574 21.9184 78.7601 22.2559 78.4813 22.8461C78.1569 23.5341 78.2416 24.1994 78.7422 24.7798C79.246 25.3618 79.9095 25.5575 80.6775 25.3863C81.2041 25.2689 81.5579 24.7423 81.465 24.2385C81.3573 23.6564 80.8193 23.2928 80.2112 23.3907C80.1345 23.4037 80.0628 23.4249 80.0188 23.4934C79.9666 23.5733 79.965 23.6564 80.0188 23.7347C80.0726 23.8146 80.1541 23.8358 80.2503 23.8276C80.34 23.8195 80.4313 23.8064 80.5193 23.8195C80.7671 23.8553 80.9595 24.0379 81.015 24.2727C81.0671 24.4993 80.9709 24.739 80.7688 24.8792C80.6465 24.964 80.5063 24.9901 80.3612 25.0048C79.5721 25.0798 78.8889 24.5695 78.7683 23.8178C78.6639 23.1673 79.0731 22.507 79.722 22.3016C80.3155 22.1141 80.8992 22.1613 81.4519 22.4353C82.1073 22.7597 82.5117 23.2765 82.6649 23.9727C82.8704 24.9069 82.3666 25.9194 81.4796 26.3531C80.9742 26.6009 80.4345 26.6678 79.8769 26.614C79.246 26.552 78.6851 26.3189 78.196 25.9276C77.6139 25.4613 77.2585 24.8662 77.1232 24.1504C77.0091 23.5521 77.0824 22.9717 77.3384 22.4141C77.6433 21.7505 78.1308 21.25 78.8058 20.9271C79.4922 20.5994 80.2242 20.5195 80.9758 20.619C81.5742 20.6972 82.1236 20.9059 82.6258 21.2304C83.0579 21.5108 83.4231 21.8565 83.7149 22.2722C83.7557 22.3309 83.7948 22.3929 83.8339 22.4532C83.8551 22.4842 83.8796 22.5021 83.9203 22.4891C83.966 22.4728 83.9595 22.4385 83.9481 22.4075C83.9366 22.3749 83.922 22.3423 83.9057 22.3113C83.6318 21.7831 83.2568 21.3347 82.7693 20.9744C82.0552 20.4462 81.2481 20.1755 80.4231 20.1608L80.4199 20.1543ZM80.309 27.8547C80.6123 27.8547 80.9122 27.8205 81.2057 27.7536C82.166 27.5335 82.9193 27.0281 83.4426 26.2227C83.9888 25.383 84.1307 24.4749 83.8731 23.5146C83.6693 22.7548 83.2339 22.1353 82.5883 21.6608C81.9867 21.219 81.3035 20.9809 80.5454 20.9532C80.0498 20.9353 79.5655 20.9972 79.1106 21.1945C78.2156 21.5842 77.6694 22.251 77.4982 23.1804C77.3629 23.9075 77.5406 24.5792 77.9938 25.176C78.3069 25.5901 78.7193 25.8868 79.215 26.0711C79.6878 26.2471 80.1737 26.2928 80.6742 26.2096C81.3133 26.1037 81.8041 25.789 82.1008 25.2298C82.4367 24.5939 82.3894 23.9662 81.9899 23.3695C81.747 23.0092 81.3981 22.7711 80.9742 22.6439C80.5927 22.5298 80.2063 22.5249 79.8297 22.6554C79.3014 22.8363 79.021 23.4021 79.1922 23.9238C79.3585 24.4341 79.9291 24.739 80.4671 24.6037C80.5845 24.5743 80.6563 24.4684 80.6334 24.3526C80.6139 24.2417 80.5063 24.1667 80.3873 24.1798C80.3628 24.183 80.3367 24.1879 80.3123 24.1928C80.0367 24.2401 79.7563 24.0966 79.6454 23.8521C79.5313 23.6026 79.6063 23.3157 79.828 23.1461C79.9519 23.0515 80.1003 23.0206 80.2519 23.0043C81.0329 22.9211 81.7323 23.438 81.8514 24.1847C81.9606 24.8678 81.5253 25.5395 80.8356 25.7287C80.2307 25.8966 79.6471 25.8281 79.0943 25.5363C78.1047 25.0129 77.6596 23.8733 78.0525 22.8575C78.2775 22.2738 78.6884 21.8467 79.2818 21.594C79.696 21.4179 80.1345 21.3625 80.5845 21.3853C81.2807 21.4228 81.9019 21.6527 82.4301 22.0896C83.2486 22.7662 83.6187 23.632 83.5307 24.6689C83.4769 25.3048 83.2209 25.8656 82.7921 26.3482C82.272 26.9352 81.6035 27.2661 80.8177 27.3835C80.2258 27.4716 79.6438 27.4357 79.0699 27.2694C78.4569 27.0917 77.9188 26.7884 77.4558 26.3629C77.1998 26.1281 76.9781 25.8656 76.7955 25.5722C76.7612 25.5183 76.7286 25.5037 76.6911 25.5232C76.6553 25.5412 76.6536 25.577 76.6813 25.6341C76.9275 26.1395 77.2699 26.5748 77.715 26.9335C78.4666 27.5384 79.3308 27.8449 80.3106 27.8515L80.309 27.8547Z" fill="#1D1D1B"/>
<path d="M80.4197 20.154C81.2447 20.1671 82.0517 20.4377 82.7659 20.9676C83.2533 21.3279 83.6283 21.7763 83.9022 22.3045C83.9185 22.3355 83.9332 22.3681 83.9446 22.4007C83.956 22.4333 83.9626 22.4676 83.9169 22.4822C83.8778 22.4953 83.8517 22.479 83.8305 22.4464C83.7914 22.386 83.7522 22.3257 83.7115 22.2654C83.4196 21.8496 83.0561 21.5024 82.6224 21.2236C82.1202 20.8991 81.5708 20.692 80.9724 20.6122C80.2192 20.5127 79.4887 20.591 78.8023 20.9203C78.129 21.2431 77.6415 21.7437 77.335 22.4072C77.079 22.9648 77.0056 23.5452 77.1198 24.1436C77.2551 24.8577 77.6121 25.4544 78.1926 25.9207C78.6817 26.312 79.2426 26.5452 79.8735 26.6071C80.4311 26.6626 80.9692 26.5941 81.4762 26.3463C82.3631 25.9126 82.8686 24.9001 82.6615 23.9659C82.5083 23.2697 82.1039 22.7529 81.4485 22.4284C80.8942 22.1545 80.3121 22.1072 79.7186 22.2947C79.0714 22.5002 78.6605 23.1605 78.7648 23.811C78.8855 24.5626 79.5703 25.0729 80.3577 24.9979C80.5029 24.9849 80.6431 24.9572 80.7653 24.8724C80.9675 24.7322 81.0637 24.4925 81.0115 24.2659C80.9561 24.0311 80.7653 23.8485 80.5159 23.8126C80.4295 23.7996 80.3366 23.8126 80.2469 23.8208C80.1507 23.8306 80.0692 23.8077 80.0154 23.7279C79.9616 23.6496 79.9632 23.5664 80.0154 23.4866C80.0594 23.4181 80.1328 23.3969 80.2078 23.3838C80.8159 23.286 81.3523 23.6496 81.4615 24.2316C81.5545 24.7354 81.2007 25.2621 80.674 25.3794C79.9061 25.5506 79.2426 25.355 78.7388 24.7729C78.2366 24.1925 78.1534 23.5273 78.4779 22.8393C78.7567 22.2491 79.254 21.9116 79.9143 21.7958C80.4654 21.6996 81.0001 21.7518 81.5104 21.9752C82.3566 22.3453 82.8947 22.9713 83.0936 23.8485C83.2485 24.5284 83.1262 25.174 82.7463 25.7659C82.3012 26.4588 81.6507 26.8664 80.8192 27.0001C79.7561 27.1713 78.7991 26.93 77.9545 26.2892C77.3154 25.805 76.9046 25.1691 76.7154 24.4061C76.5312 23.6659 76.5948 22.9404 76.9127 22.2442C77.3105 21.3735 77.9708 20.7556 78.8888 20.4018C79.3534 20.2225 79.8409 20.1459 80.4164 20.1475L80.4197 20.154Z" fill="#1D1D1B"/>
<path d="M80.3088 27.8544C79.3305 27.8478 78.4648 27.5413 77.7132 26.9365C77.2681 26.5778 76.9257 26.1441 76.6795 25.637C76.6518 25.58 76.655 25.5457 76.6893 25.5262C76.7268 25.5066 76.7594 25.5213 76.7936 25.5751C76.9762 25.8685 77.198 26.131 77.4539 26.3658C77.917 26.7913 78.455 27.093 79.068 27.2723C79.6419 27.4386 80.224 27.4745 80.8158 27.3864C81.6017 27.2691 82.2701 26.9381 82.7902 26.3511C83.219 25.8669 83.475 25.3077 83.5288 24.6718C83.6152 23.6349 83.2451 22.7691 82.4283 22.0925C81.9 21.6556 81.2789 21.4257 80.5827 21.3882C80.1327 21.3637 79.6941 21.4192 79.28 21.5969C78.6865 21.8496 78.2757 22.2751 78.0507 22.8604C77.6594 23.8778 78.1028 25.0175 79.0925 25.5392C79.6436 25.831 80.2272 25.8979 80.8338 25.7316C81.5218 25.5408 81.9587 24.8707 81.8495 24.1876C81.7305 23.4409 81.031 22.924 80.2501 23.0072C80.0968 23.0235 79.9501 23.0528 79.8262 23.149C79.6044 23.3186 79.5294 23.6055 79.6436 23.855C79.7561 24.0996 80.0349 24.2414 80.3104 24.1957C80.3349 24.1909 80.3593 24.186 80.3854 24.1827C80.5044 24.1697 80.612 24.2447 80.6316 24.3555C80.6528 24.4713 80.5827 24.5773 80.4653 24.6066C79.9289 24.7419 79.3582 24.437 79.1903 23.9267C79.0207 23.405 79.2995 22.8393 79.8278 22.6583C80.206 22.5278 80.5925 22.5327 80.9723 22.6469C81.3979 22.774 81.7468 23.0104 81.9881 23.3724C82.3875 23.9691 82.4348 24.5968 82.0989 25.2327C81.8038 25.7919 81.3131 26.1066 80.6723 26.2126C80.1718 26.2957 79.6843 26.2501 79.2131 26.074C78.7175 25.8897 78.3066 25.593 77.992 25.1789C77.5403 24.5805 77.3626 23.9104 77.4963 23.1833C77.6691 22.2539 78.2153 21.5855 79.1088 21.1974C79.562 21.0002 80.0479 20.9366 80.5435 20.9561C81.3017 20.9839 81.9848 21.2219 82.5864 21.6637C83.2321 22.1398 83.6674 22.7577 83.8712 23.5175C84.1288 24.4778 83.987 25.3859 83.4408 26.2256C82.9174 27.031 82.1625 27.5364 81.2039 27.7565C80.9088 27.8234 80.6104 27.8576 80.3071 27.8576L80.3088 27.8544Z" fill="#1D1D1B"/>
</svg>
