<svg width="109" height="41" viewBox="0 0 109 41" fill="none" xmlns="http://www.w3.org/2000/svg">
<path d="M19.07 22.1253C19.07 22.1253 18.9803 22.2284 18.8009 22.4347C18.6194 22.6227 18.3975 22.8618 18.1354 23.1519C17.8711 23.4237 17.6079 23.7047 17.3458 23.9948C17.0997 24.2645 16.887 24.5025 16.7076 24.7088C16.5443 24.8947 16.4627 24.9876 16.4627 24.9876L14.6288 26.8701C14.6567 27.1075 14.7158 27.295 14.8061 27.4325C14.8942 27.5517 15.0479 27.7559 15.267 28.0449C15.5067 28.35 15.7919 28.6497 16.1229 28.9441C16.4721 29.2363 16.7885 29.4861 17.0721 29.6934C17.374 29.8986 17.5669 30.0426 17.6507 30.1253C17.7797 30.2768 17.7754 30.3976 17.6378 30.4879C17.5003 30.5782 17.3241 30.6544 17.1093 30.7168C16.8922 30.7608 16.7311 30.8076 16.6258 30.857C16.3088 30.8388 15.9666 30.6846 15.5992 30.3945C15.2317 30.1045 14.8874 29.7747 14.5661 29.4051C14.2631 29.0334 14.0519 28.7342 13.9327 28.5075C13.6383 28.2088 13.4142 27.9574 13.2606 27.7533C13.1069 27.5492 12.9302 27.2274 12.7303 26.788C12.6358 26.9287 12.5584 27.0582 12.4983 27.1764C12.4381 27.2946 12.3683 27.488 12.2888 27.7566C12.2415 27.9843 12.1803 28.2508 12.1051 28.5559C12.0278 28.8428 11.9564 29.1012 11.8908 29.3311C11.8414 29.5406 11.835 29.6432 11.8715 29.6389C11.9403 29.9086 11.9537 30.1015 11.9118 30.2175C11.8699 30.3335 11.7765 30.4834 11.6315 30.6671L10.895 30.7816C10.52 30.585 10.2831 30.3814 10.1842 30.1709C10.0832 29.942 10.0198 29.718 9.99401 29.4988C10.1337 29.112 10.2722 28.7161 10.4097 28.3111C10.5633 27.8856 10.66 27.4483 10.6997 26.9992C10.5901 27.0121 10.4827 27.0433 10.3774 27.0927C10.27 27.1239 10.118 27.1695 9.92135 27.2297C9.67963 27.5359 9.45187 27.8035 9.23808 28.0323C9.0404 28.2408 8.8105 28.4901 8.54836 28.7802C8.30449 29.0681 7.97307 29.4775 7.55409 30.0082C7.2941 30.3166 7.03519 30.6341 6.77736 30.9607C6.51952 31.2874 6.29231 31.6382 6.09572 32.0132C5.94102 32.2721 5.56069 32.3446 4.95472 32.2308L4.24235 31.3702C4.22515 31.2241 4.24663 31.092 4.30679 30.9738C4.36695 30.8556 4.45665 30.7525 4.5759 30.6643C4.64251 30.6009 4.79883 30.4344 5.04485 30.1647C5.28872 29.8768 5.55676 29.5582 5.84897 29.209C6.15945 28.8577 6.41246 28.5686 6.60798 28.3419C6.65633 28.2807 6.77128 28.156 6.95284 27.968C7.15052 27.7596 7.34013 27.5613 7.5217 27.3733C7.72152 27.1831 7.83057 27.087 7.84883 27.0848C7.97775 26.9215 8.1996 26.6824 8.51438 26.3676C8.82916 26.0528 9.06712 25.7933 9.22826 25.5892C9.01122 25.3184 8.78182 25.0214 8.54006 24.698C8.31442 24.3542 8.05547 24.0421 7.76322 23.7617C7.54617 23.491 7.32806 23.2111 7.10886 22.9221C6.90793 22.631 6.68766 22.3328 6.44806 22.0277C6.50928 21.7613 6.66667 21.6038 6.92022 21.5555C7.17378 21.5071 7.43593 21.5318 7.70669 21.6296C8.19233 21.9798 8.5915 22.4606 8.90418 23.0719C9.22975 23.478 9.49998 23.8073 9.71487 24.0597C9.92762 24.2939 10.1302 24.5201 10.3225 24.7382C10.5148 24.9563 10.7421 25.2351 11.0042 25.5746C11.0611 24.9568 11.1261 24.3288 11.1991 23.6906C11.2721 23.0524 11.3226 22.5372 11.3505 22.1451C11.3699 21.9946 11.3801 21.8453 11.3811 21.697C11.4004 21.5466 11.3822 21.3914 11.3263 21.2313C11.2973 21.1421 11.2876 21.0599 11.2973 20.9847C11.3231 20.8891 11.3419 20.8128 11.3537 20.7559C11.3751 20.6237 11.4385 20.5329 11.5438 20.4835C11.6491 20.4341 11.771 20.4475 11.9097 20.5238C12.2051 20.6742 12.4877 20.8724 12.7574 21.1184C13.0453 21.3623 13.163 21.654 13.1104 21.9935C13.1125 22.0117 13.0905 22.218 13.0443 22.6123C12.996 22.9884 12.9461 23.4294 12.8945 23.9354C12.8408 24.4232 12.7898 24.8551 12.7415 25.2312C12.6932 25.6072 12.6701 25.8044 12.6723 25.8226L12.9527 25.8452C13.29 25.5647 13.6354 25.2741 13.9889 24.9732C14.3402 24.6541 14.6066 24.4006 14.7882 24.2125C15.0224 23.9998 15.3108 23.6973 15.6535 23.3052C15.9963 22.913 16.3288 22.5127 16.651 22.1045C16.9733 21.6962 17.2231 21.3797 17.4004 21.1552C17.5476 20.9897 17.6464 20.8855 17.6969 20.8425C17.7635 20.7791 17.8951 20.7173 18.0917 20.6572C18.3077 20.7614 18.5199 20.9123 18.7283 21.11C18.9529 21.2872 19.0953 21.4742 19.1554 21.6708C19.1952 21.8513 19.1667 22.0028 19.07 22.1253ZM33.5478 28.2819C33.3512 28.342 33.1513 28.3748 32.9483 28.3802C32.7452 28.3856 32.5448 28.3351 32.3471 28.2287C32.2569 28.0912 32.1462 27.9376 32.0151 27.7679C31.9001 27.5777 31.8706 27.4053 31.9264 27.2505C31.992 27.0206 32.0011 26.7047 31.9538 26.3029C31.9247 25.8989 31.958 25.5525 32.0536 25.2634C32.0676 25.2248 32.0735 25.1963 32.0714 25.178C32.0853 25.1393 32.0902 25.1017 32.0859 25.0652C32.0826 24.8804 32.1014 24.6467 32.1422 24.3642C32.1991 24.0612 32.2362 23.8253 32.2534 23.6567C32.2673 23.618 32.2765 23.4595 32.2807 23.1812C32.285 22.903 32.2872 22.6064 32.2871 22.2916C32.2871 21.9768 32.2796 21.7555 32.2645 21.6277C32.2538 21.5364 32.2726 21.4601 32.3209 21.3988C32.3854 21.3172 32.3746 21.2258 32.2887 21.1249C32.0287 21.4332 31.7075 21.8506 31.325 22.3771C30.9608 22.9014 30.616 23.4328 30.2905 23.971C29.9628 24.4911 29.7098 24.9375 29.5315 25.3103C29.5036 25.3877 29.4654 25.457 29.4171 25.5182C29.3687 25.5795 29.3295 25.6396 29.2995 25.6987C29.2393 25.8169 29.1598 25.9281 29.061 26.0323C28.9621 26.1366 28.8939 26.265 28.8563 26.4175C28.5824 26.7646 28.3611 27.0869 28.1924 27.3845C28.042 27.68 27.8105 27.9943 27.4978 28.3273C27.2669 28.4101 27.0455 28.4176 26.8339 28.3499C26.6405 28.2801 26.439 28.2205 26.2295 28.1711C26.1822 28.0841 26.1258 27.9981 26.0603 27.9133C25.9926 27.8101 25.9351 27.715 25.8878 27.628C25.8932 27.2015 25.9152 26.6804 25.9538 26.0648C25.9903 25.4309 26.0096 24.8083 26.0117 24.1969C26.0321 23.5834 26.0047 23.1145 25.9294 22.79C25.9004 22.7008 25.8827 22.6289 25.8762 22.5741C25.8698 22.5193 25.8897 22.4521 25.9359 22.3726C25.9316 22.3361 25.9273 22.2995 25.923 22.263C25.9369 22.2243 25.9428 22.1959 25.9407 22.1776C25.8386 22.097 25.8096 22.0079 25.8536 21.9101C25.8977 21.8123 25.8869 21.721 25.8214 21.6361C25.801 21.62 25.7714 21.605 25.7328 21.591C25.7123 21.5749 25.6828 21.5598 25.6441 21.5459C25.3154 22.2142 24.9458 22.8502 24.5355 23.4541C24.1412 24.0375 23.7593 24.6472 23.3897 25.2833C23.1426 25.7012 22.9122 26.1821 22.6984 26.7257C22.5029 27.2672 22.2419 27.7239 21.9153 28.0956C21.8025 28.2385 21.6918 28.3997 21.5833 28.5791C21.4909 28.7381 21.369 28.8821 21.2175 29.011C21.196 29.1432 21.1348 29.2522 21.0338 29.3382C20.9489 29.4037 20.8334 29.4451 20.6873 29.4623C20.4134 29.4946 20.1286 29.4355 19.8332 29.2851C19.5377 29.1347 19.3669 28.9418 19.3207 28.7066C19.3056 28.5787 19.3453 28.4444 19.4399 28.3037C19.4539 28.265 19.4587 28.2274 19.4544 28.1908C19.4684 28.1522 19.4834 28.1226 19.4995 28.1022C19.8293 27.9152 20.1452 27.6096 20.4471 27.1851C20.7672 26.7586 21.0659 26.3068 21.343 25.8297C21.618 25.3344 21.8753 24.9245 22.1149 24.6001C22.3405 24.3143 22.5103 24.0258 22.6241 23.7346C22.7358 23.4252 22.8852 23.1206 23.0721 22.8208C23.3052 22.4415 23.5351 22.0349 23.7618 21.6008C24.0067 21.1646 24.2436 20.7386 24.4724 20.3228C24.7195 19.9048 24.972 19.5325 25.2298 19.2059C25.3662 19.2639 25.5016 19.3128 25.6359 19.3525C25.7885 19.3901 25.947 19.3992 26.1113 19.3799C26.2156 19.4787 26.3107 19.5786 26.3966 19.6796C26.4987 19.7602 26.6099 19.8397 26.7302 19.9181C27.0117 20.1072 27.2196 20.379 27.354 20.7335C27.4883 21.0881 27.5802 21.4754 27.6296 21.8955C27.7006 22.4982 27.7087 23.1176 27.6539 23.7536C27.6153 24.3693 27.5933 24.8904 27.5879 25.3169C27.5901 25.3352 27.5922 25.3534 27.5944 25.3717C27.6126 25.3695 27.6228 25.3776 27.625 25.3959C27.986 25.0015 28.2948 24.5578 28.5516 24.0646C28.8083 23.5715 29.0866 23.1035 29.3863 22.6609C29.9374 21.8368 30.3478 21.2329 30.6174 20.8494C30.9054 20.4636 31.1229 20.1881 31.2701 20.0226C31.4173 19.8571 31.5645 19.6917 31.7116 19.5262C31.8287 19.4198 31.9609 19.2839 32.1081 19.1184C32.2714 18.9326 32.4819 18.6763 32.7398 18.3497C32.8859 18.3325 33.0229 18.3163 33.1507 18.3013C33.2968 18.2841 33.4338 18.268 33.5617 18.2529C33.7185 18.327 33.8367 18.3872 33.9162 18.4334C33.9936 18.4613 34.1166 18.4839 34.2853 18.5011C34.3143 18.5902 34.367 18.7229 34.4432 18.8991C34.5195 19.0753 34.5448 19.2112 34.519 19.3068C34.4975 19.439 34.4943 19.569 34.5094 19.6969C34.5244 19.8247 34.4938 19.9579 34.4175 20.0965C34.2972 20.3329 34.2032 20.7143 34.1356 21.2408C34.084 21.7468 34.0416 22.2518 34.0083 22.7557C33.9912 23.2392 33.9853 23.5824 33.9907 23.7855C33.9585 24.1411 33.9134 24.3872 33.8553 24.5236C33.7952 24.6418 33.7544 24.767 33.7329 24.8991C33.7114 25.0313 33.7195 25.1785 33.7571 25.3407C33.7926 25.4847 33.7904 25.6238 33.7507 25.7581C33.7346 25.7785 33.7184 25.7989 33.7023 25.8193C33.7023 25.8193 33.6943 25.8295 33.6782 25.85C33.6997 26.0326 33.7222 26.2244 33.7459 26.4253C33.7856 26.6058 33.7685 26.7745 33.6943 26.9313C33.7459 27.0549 33.7712 27.1908 33.7701 27.3391C33.769 27.4873 33.8045 27.6313 33.8765 27.771C33.812 27.8526 33.7567 27.9332 33.7105 28.0127C33.6643 28.0922 33.6101 28.1819 33.5478 28.2819ZM37.1038 28.2799C36.8846 28.3057 36.6896 28.3009 36.5188 28.2655C36.3641 28.2096 36.2346 28.1323 36.1304 28.0334C36.0423 27.9142 35.9542 27.7949 35.8661 27.6757C35.7758 27.5381 35.6936 27.3904 35.6195 27.2325C35.6388 27.0821 35.7038 26.9263 35.8144 26.7651C35.9251 26.6039 36.0975 26.5744 36.3317 26.6764C36.3683 26.6721 36.4069 26.6861 36.4478 26.7183C36.4886 26.7506 36.5386 26.7817 36.5977 26.8118C37.2369 26.4218 37.7375 25.9554 38.0996 25.4129C38.4777 24.8498 38.8312 24.2342 39.1599 23.5659C38.8387 23.5111 38.511 23.4016 38.1768 23.2372C37.8609 23.0707 37.6262 22.8854 37.4725 22.6812C37.2555 22.4105 37.0959 22.0775 36.9938 21.6821C36.8917 21.2867 36.8203 21.0729 36.7794 21.0407C36.9008 20.656 36.9647 20.3337 36.9711 20.0737C36.9958 19.8116 37.0399 19.5564 37.1033 19.3082C37.1645 19.0417 37.3036 18.7291 37.5206 18.3702C37.6914 18.0909 37.91 17.8244 38.1765 17.5708C38.4408 17.299 38.7013 17.0739 38.958 16.8955C39.2148 16.7172 39.4071 16.6205 39.535 16.6054C39.7445 16.6548 39.9352 16.6231 40.1071 16.5103C40.279 16.3975 40.4606 16.3668 40.6518 16.4184C40.727 16.4281 40.792 16.4297 40.8468 16.4232C40.9177 16.3964 40.9725 16.3899 41.0112 16.4039C41.4786 16.4415 41.8954 16.522 42.2618 16.6455C42.6282 16.7691 42.892 17.0436 43.0531 17.469C43.007 17.8633 42.9517 18.2587 42.8872 18.6552C42.8389 19.0312 42.7358 19.4137 42.5779 19.8026C42.4361 20.1712 42.2964 20.5579 42.1589 20.963C42.0375 21.3476 41.8683 21.7194 41.6513 22.0783L41.7255 22.2362C41.9307 22.2491 42.1826 22.2657 42.4813 22.2861C42.7961 22.2861 42.9626 22.285 42.9809 22.2828C43.1883 22.314 43.3725 22.3849 43.5337 22.4955C43.711 22.5858 43.8995 22.6932 44.0994 22.8178C44.1262 22.8887 44.1348 22.9618 44.1252 23.037C44.1155 23.1122 44.0887 23.1987 44.0446 23.2965C43.891 23.7219 43.7293 24.1576 43.5596 24.6035C43.3877 25.0311 43.2261 25.4668 43.0746 25.9105C43.023 26.1018 42.986 26.3376 42.9634 26.618C42.9409 26.8984 42.8936 27.1262 42.8217 27.3014C42.6766 27.4851 42.5789 27.5984 42.5284 27.6414C42.494 27.664 42.4564 27.6591 42.4156 27.6269C42.3747 27.5947 42.2721 27.5883 42.1077 27.6076C41.8456 27.5829 41.656 27.4663 41.5388 27.2579C41.4873 27.1344 41.4185 27.0221 41.3325 26.9211C41.2648 26.818 41.2407 26.6912 41.26 26.5408C41.2836 26.4269 41.3083 26.3221 41.3341 26.2265C41.3577 26.1126 41.3916 26.0068 41.4356 25.909C41.5473 25.5996 41.6408 25.2923 41.716 24.9872C41.7912 24.682 41.8766 24.385 41.9722 24.0959C42.0366 24.0143 42.0613 23.9095 42.0463 23.7817L41.8545 23.8043C41.7428 23.7989 41.6128 23.7957 41.4645 23.7946C41.3323 23.7731 41.183 23.7629 41.0165 23.764C40.9337 23.8478 40.8338 23.9429 40.7167 24.0493C40.5975 24.1374 40.5131 24.2862 40.4637 24.4957C40.2886 24.7385 40.1259 25.0077 39.9755 25.3032C39.8412 25.5782 39.6693 25.8484 39.4598 26.1138C39.2503 26.3792 39.0408 26.6446 38.8313 26.91C38.6401 27.1732 38.4215 27.4397 38.1755 27.7094C37.808 28.0489 37.4508 28.2391 37.1038 28.2799ZM39.7206 22.1944C39.8098 22.1654 39.9248 22.0408 40.0655 21.8205C40.2224 21.5798 40.3771 21.3209 40.5296 21.0437C40.6983 20.7461 40.8428 20.4791 40.9631 20.2427C41.0812 19.9881 41.1462 19.8323 41.158 19.7753C41.1623 19.8118 41.1892 19.7254 41.2386 19.5158C41.288 19.3063 41.3423 19.0592 41.4013 18.7745C41.4787 18.4876 41.549 18.2201 41.6124 17.9719C41.6758 17.7237 41.7064 17.5905 41.7042 17.5722C41.4475 17.4358 41.246 17.3762 41.0999 17.3934C40.9538 17.4106 40.7846 17.4675 40.5922 17.5643C39.938 17.8264 39.4174 18.2025 39.0307 18.6925C38.6418 19.1641 38.3866 19.7497 38.2653 20.4491C38.1923 21.0873 38.2901 21.6036 38.5587 21.9979C38.8434 22.3717 39.2307 22.4372 39.7206 22.1944ZM46.7552 26.6717C46.5575 26.5653 46.4065 26.4627 46.3023 26.3639C46.1981 26.2651 46.1433 26.1141 46.1379 25.9111C46.1422 25.6328 46.1636 25.3432 46.2023 25.0424C46.2388 24.7233 46.2947 24.4112 46.3698 24.1061C46.3859 23.7708 46.4112 23.4346 46.4455 23.0972C46.4981 22.7577 46.6077 22.43 46.7742 22.1141C46.9815 21.2009 47.1647 20.3182 47.3236 19.4662C47.4987 18.5938 47.7479 17.5645 48.0712 16.3784C48.1389 16.1667 48.2039 16.0109 48.2662 15.911C48.3446 15.7907 48.4139 15.6714 48.4741 15.5532C48.4837 15.478 48.5342 15.435 48.6255 15.4243C48.733 15.3931 48.8539 15.3974 48.9882 15.4372C49.1203 15.4586 49.2283 15.5107 49.3121 15.5935C49.383 15.5666 49.4974 15.6735 49.6554 15.9141C49.8316 16.1526 49.91 16.3471 49.8907 16.4975C49.8993 16.5706 49.8929 16.6732 49.8714 16.8053C49.8499 16.9375 49.8091 17.0627 49.7489 17.1808C49.6845 17.2625 49.6243 17.3807 49.5685 17.5354C49.5104 17.6719 49.4213 17.8583 49.301 18.0946C49.1785 18.6276 49.0738 19.075 48.9868 19.4371C48.8998 19.7992 48.7908 20.2102 48.6597 20.67C48.5534 20.8677 48.4819 21.1261 48.4454 21.4452C48.4089 21.7643 48.3713 22.0743 48.3327 22.3751C48.2435 22.7189 48.1603 23.0342 48.0829 23.3211C48.0238 23.6058 47.9986 23.7847 48.0072 23.8578C47.9266 24.2746 47.8735 24.6883 47.8477 25.0987C47.8198 25.4909 47.7409 25.8427 47.6109 26.1543C47.6249 26.4304 47.5642 26.6228 47.4288 26.7313C47.3117 26.8377 47.0872 26.8178 46.7552 26.6717ZM53.3546 26.3393C53.0581 26.3372 52.8325 26.3082 52.6777 26.2523C52.5209 26.1782 52.2243 26.0187 51.7881 25.7737C51.5431 25.5804 51.202 25.2779 50.7647 24.8665C50.3274 24.455 49.8869 24.0161 49.4431 23.5499C48.9972 23.0654 48.6249 22.6555 48.3262 22.3203L49.2721 20.6813C49.5439 20.9455 49.768 21.1969 49.9442 21.4354C50.1204 21.6739 50.2595 21.8335 50.3616 21.9141C50.8548 22.4856 51.2427 22.9492 51.5253 23.3048C51.8261 23.6582 52.091 23.9419 52.3198 24.1557C52.5487 24.3695 52.7835 24.5548 53.0241 24.7116C53.2831 24.8663 53.5979 25.0237 53.9686 25.1838C54.0277 25.2138 54.0889 25.2622 54.1523 25.3288C54.2157 25.3954 54.2468 25.5028 54.2458 25.6511C54.1964 25.8606 54.1292 25.9981 54.0444 26.0637C53.9756 26.1088 53.7457 26.2007 53.3546 26.3393ZM48.2085 22.0286C48.0624 21.731 48.0624 21.4162 48.2085 21.0842C48.3707 20.7318 48.563 20.4777 48.7854 20.3219C48.8434 20.1854 48.9068 20.0947 48.9755 20.0495C49.0604 19.984 49.1077 19.9136 49.1173 19.8384C49.1453 19.761 49.2248 19.6498 49.3558 19.5048C49.5052 19.3576 49.6373 19.2217 49.7523 19.097C50.023 18.88 50.326 18.6221 50.6612 18.3234C51.0125 18.0043 51.3455 17.6873 51.6603 17.3725C51.9751 17.0577 52.2394 16.7859 52.4531 16.557C52.6852 16.326 52.8254 16.1799 52.8737 16.1186C52.9199 16.0391 52.9876 15.9849 53.0768 15.9558C53.1821 15.9064 53.3212 15.9086 53.4942 15.9623C53.7198 15.9913 53.8767 16.0654 53.9648 16.1846C54.0508 16.2856 54.1131 16.5005 54.1518 16.8293C54.2302 17.0237 54.1738 17.2526 53.9826 17.5158C53.8075 17.7586 53.526 18.0417 53.1382 18.3652C53.0028 18.4737 52.818 18.6343 52.5838 18.8471C52.3679 19.0577 52.1783 19.2559 52.015 19.4418C51.8957 19.5299 51.719 19.6803 51.4848 19.8931C51.2667 20.0854 51.076 20.2745 50.9127 20.4604C50.7773 20.5689 50.6049 20.7558 50.3954 21.0212C50.1838 21.2684 49.9657 21.4607 49.7411 21.5982C49.2212 22.215 48.872 22.5523 48.6937 22.6104C48.5153 22.6684 48.3536 22.4745 48.2085 22.0286ZM58.8758 25.0506C58.734 25.1043 58.5444 25.1451 58.3069 25.1731C58.0673 25.1828 57.8541 25.1801 57.6671 25.1651C57.4963 25.1296 57.4077 25.0845 57.4012 25.0297C57.3905 24.9384 57.3394 24.8981 57.2481 24.9088C57.2481 24.9088 57.1981 24.8777 57.0982 24.8154C57.0166 24.7509 56.8892 24.6918 56.7163 24.6381C56.5218 24.4018 56.4073 24.1375 56.3729 23.8452C56.3364 23.5347 56.3616 23.0411 56.4486 22.3642C56.4496 21.9011 56.5608 21.351 56.7821 20.7139C57.0195 20.0563 57.3198 19.3821 57.6829 18.6913C58.046 18.0004 58.4349 17.3714 58.8495 16.804C59.2825 16.2346 59.6859 15.8075 60.0598 15.5228C60.2854 15.237 60.5797 15.0634 60.9429 15.0022C61.306 14.9409 61.6627 14.9822 62.013 15.1262C62.2064 15.196 62.4062 15.3206 62.6125 15.5C62.8188 15.6795 63.0181 15.8782 63.2105 16.0963C63.4028 16.3144 63.5677 16.5357 63.7053 16.7602C63.7837 16.9547 63.8326 17.1341 63.852 17.2985C63.8874 17.4425 63.9089 17.6251 63.9164 17.8464C63.9422 18.0656 63.9535 18.3976 63.9504 18.8424C63.8977 19.1819 63.8628 19.5934 63.8457 20.0769C63.8468 20.5582 63.8678 20.9724 63.9086 21.3194C63.9129 21.6708 63.9785 21.913 64.1053 22.0462C64.2503 22.1773 64.434 22.1649 64.6564 22.0091C64.8627 21.8738 65.0674 21.8034 65.2704 21.798C65.4713 21.7743 65.633 21.8109 65.7555 21.9075C65.8963 22.0021 65.9795 22.1589 66.0053 22.3781C66.0311 22.5973 65.9484 22.8385 65.7572 23.1017C65.5821 23.3446 65.349 23.5664 65.0578 23.7674C64.7828 23.9479 64.5083 24.0543 64.2343 24.0865C64.0334 24.1102 63.8276 24.014 63.617 23.7981C63.4043 23.5639 63.2045 23.2818 63.0175 22.952C62.8466 22.6018 62.6871 22.2687 62.5388 21.9529L62.3002 21.3421L61.2544 22.604C61.047 22.8877 60.8376 23.1531 60.6259 23.4002C60.4304 23.6269 60.3106 23.7891 60.2666 23.8869C60.1946 24.062 60.0404 24.2468 59.8041 24.4413C59.586 24.6337 59.2766 24.8367 58.8758 25.0506ZM58.7677 23.4245C59.0567 23.2053 59.3817 22.8985 59.7427 22.5042C60.1015 22.0916 60.448 21.6527 60.7821 21.1875C61.1141 20.704 61.3864 20.2645 61.5991 19.8691C61.8602 19.4125 62.0514 18.9919 62.1728 18.6072C62.2941 18.2226 62.372 17.8616 62.4064 17.5242C62.3097 17.3319 62.1662 17.1358 61.976 16.936C61.7837 16.7179 61.6225 16.6073 61.4925 16.6041C61.0907 16.6513 60.6916 16.9576 60.2952 17.5227C59.9149 18.0675 59.5491 18.6568 59.1978 19.2907C59.1355 19.3906 59.0522 19.5486 58.948 19.7645C58.8438 19.9805 58.7385 20.1873 58.6322 20.385C58.542 20.5623 58.4818 20.6805 58.4517 20.7396C58.4055 20.8191 58.3207 21.042 58.1971 21.4084C58.0897 21.7544 57.9834 22.1095 57.8781 22.4737C57.7707 22.8196 57.7234 23.0474 57.7363 23.157C57.7492 23.2666 57.7723 23.3842 57.8056 23.5099C57.8572 23.6335 57.9582 23.7049 58.1086 23.7243C58.259 23.7436 58.4787 23.6437 58.7677 23.4245ZM74.1782 23.9993C74.059 24.0874 73.8822 24.0804 73.648 23.9784C73.432 23.8742 73.2086 23.7061 72.9775 23.474C72.8239 23.2699 72.7046 23.0432 72.6197 22.7939C72.5531 22.5425 72.4929 22.1885 72.4392 21.7319C72.4144 21.3645 72.3682 21.1292 72.3005 21.026C72.2511 20.9208 72.1528 20.9508 72.0056 21.1163C71.8563 21.2635 71.6044 21.5617 71.2498 22.0108C70.847 22.5211 70.4505 22.9289 70.0606 23.2341C69.6888 23.5371 69.374 23.6945 69.1162 23.7063C68.9883 23.7214 68.8347 23.6746 68.6553 23.5661C68.4919 23.4372 68.3345 23.2798 68.183 23.094C68.0294 22.8898 67.894 22.6836 67.7769 22.4751C67.62 22.0862 67.5415 21.577 67.5415 20.9474C67.5576 20.2973 67.6252 19.6135 67.7444 18.8958C67.8636 18.1781 68.0146 17.4937 68.1972 16.8426C68.398 16.1893 68.6129 15.6548 68.8417 15.239C69.0888 14.8211 69.3219 14.5992 69.5411 14.5734C69.6872 14.5562 69.8237 14.6142 69.9505 14.7474C70.0955 14.8785 70.2502 15.0917 70.4146 15.3872C70.5027 15.5064 70.543 15.6128 70.5355 15.7063C70.5463 15.7976 70.4861 15.9158 70.355 16.0608C70.2165 16.2994 70.0634 16.6507 69.8958 17.1149C69.7465 17.5768 69.6015 18.0754 69.4608 18.6104C69.3383 19.1433 69.232 19.6558 69.1418 20.1479C69.0515 20.64 68.9973 21.0445 68.9791 21.3615C68.9587 21.6601 68.985 21.8052 69.0581 21.7966C69.3138 21.7665 69.6033 21.6305 69.9267 21.3888C70.2662 21.1266 70.582 20.8209 70.8742 20.4717C71.2126 20.043 71.5011 19.5832 71.7396 19.0922C71.9963 18.599 72.2499 18.0784 72.5002 17.5305C72.6946 17.1372 72.8939 16.7064 73.098 16.238C73.3204 15.7674 73.4573 15.4364 73.5089 15.2452C73.7087 14.7402 73.8628 14.398 73.9713 14.2186C74.0777 14.0209 74.219 13.8839 74.3952 13.8076C74.4865 13.7968 74.5687 13.7872 74.6417 13.7786C74.7331 13.7678 74.7787 13.7624 74.7787 13.7624C74.8905 13.7678 75.028 13.835 75.1913 13.9639C75.346 14.0197 75.4368 14.0831 75.4637 14.154C75.4884 14.2067 75.5061 14.2787 75.5169 14.37C75.4653 14.5612 75.3788 14.8492 75.2575 15.2338C75.1522 15.598 75.0727 15.8666 75.019 16.0396C74.7644 16.8658 74.5087 17.6829 74.252 18.4909C74.0114 19.2784 73.8643 20.0735 73.8106 20.8761C73.8042 21.1361 73.8305 21.4385 73.8896 21.7834C73.9648 22.1079 74.0476 22.3388 74.1378 22.4764C74.2055 22.5795 74.2845 22.6998 74.3748 22.8373C74.4811 22.9544 74.5945 23.0522 74.7148 23.1306C74.8921 23.2209 74.9335 23.3364 74.8389 23.4771C74.7627 23.6157 74.6477 23.7404 74.4941 23.851C74.3383 23.9434 74.233 23.9929 74.1782 23.9993ZM72.4838 12.6715C71.9261 12.8112 71.4319 12.7028 71.0011 12.3461C70.5702 11.9894 70.2081 11.4302 69.9148 10.6685C69.861 10.5267 69.8277 10.401 69.8148 10.2914C69.818 10.1614 69.8417 10.0475 69.8857 9.94971C69.9136 9.87236 69.9802 9.80896 70.0855 9.75953C70.1887 9.69184 70.2789 9.67196 70.3563 9.69989C70.6227 9.76111 70.8193 9.85834 70.9461 9.99155C71.089 10.1044 71.1906 10.2591 71.2508 10.4557C71.298 10.5427 71.327 10.6319 71.3378 10.7232C71.3668 10.8124 71.3802 10.8478 71.3781 10.8296C71.5038 11.111 71.6462 11.298 71.8052 11.3904C71.9642 11.4828 72.1823 11.4478 72.4595 11.2856C72.7549 11.1212 73.0391 10.9396 73.312 10.7408C73.6031 10.5399 73.8535 10.3067 74.063 10.0413C74.2402 9.81677 74.4105 9.61155 74.5738 9.42567C74.7554 9.23764 74.9267 9.04155 75.0879 8.8374L75.112 8.80678C75.1786 8.74339 75.2678 8.71437 75.3795 8.71974C75.4913 8.72511 75.5584 8.74498 75.581 8.77936C75.7239 8.89216 75.8029 9.01249 75.8179 9.14034C75.833 9.26819 75.8491 9.40518 75.8663 9.55129L75.8453 9.60931C75.8948 9.7146 75.8282 9.93539 75.6456 10.2717C75.4812 10.6058 75.2658 10.8997 74.9994 11.1533C74.7673 11.3843 74.5148 11.5992 74.2419 11.7979C73.9691 11.9967 73.686 12.1875 73.3927 12.3701C73.2734 12.4582 73.1418 12.52 72.9978 12.5555C72.87 12.5705 72.6986 12.6092 72.4838 12.6715Z" fill="black"/>
<path d="M82 16.3873C86.6282 16.2021 92.1663 15.4781 96.6089 16.6699C100.583 17.736 103.112 19.7634 104.046 22.5321C105.176 25.8851 105.222 29.7237 104.601 33.1266C104.284 34.8675 103.654 36.4391 102.484 38" stroke="black" stroke-width="2" stroke-linecap="round"/>
<path d="M102.044 34C102.044 35.666 101.946 37.3673 102.044 39.0328C102.06 39.3203 102.64 38.6064 102.664 38.583C104.238 36.9927 105.814 35.4574 107.514 34" stroke="black" stroke-width="2" stroke-linecap="round"/>
</svg>
